<svg viewBox="0 0 11 12" fill="none" xmlns="http://www.w3.org/2000/svg">
<path d="M5.14066 0.980957H5.90866V0.986328L6.23626 1.02392L6.45109 1.05615L6.64443 1.09374L6.85388 1.14208L7.1063 1.21189L7.29964 1.27634L7.45002 1.33005L7.64874 1.41061L7.73466 1.4482L7.81522 1.4858L7.99245 1.57172L8.11598 1.63617L8.26636 1.7221L8.35766 1.77581L8.47581 1.851L8.62082 1.94767L8.71212 2.01212L8.81416 2.0873L8.89472 2.15175L8.96991 2.21083L9.02898 2.25916L9.10954 2.32898L9.16325 2.37732L9.20621 2.41491L9.28677 2.4901L9.33511 2.53844L9.34585 2.54381V2.55455L9.36733 2.56529L9.4103 2.60825V2.619H9.42104V2.62974H9.43178L9.46937 2.6727L9.52845 2.73178V2.74252H9.53919L9.57679 2.78548L9.62512 2.83919L9.66272 2.88216L9.72716 2.95734L9.79698 3.04327L9.85069 3.11309L9.92588 3.20976L9.9957 3.3118L10.0548 3.39236L10.1353 3.51589L10.1998 3.61793L10.2481 3.69849L10.334 3.84887L10.4146 4.00461L10.4576 4.09054L10.5274 4.23555L10.6133 4.43963L10.6831 4.62761L10.7583 4.8478L10.8281 5.09485L10.8818 5.32042L10.9302 5.57283L10.9678 5.84137L10.9893 6.05082H11V6.89938H10.9893L10.9678 7.1142L10.9356 7.35588L10.8926 7.59219L10.8443 7.80164L10.7959 7.98424L10.7368 8.17758L10.667 8.38167L10.6079 8.53204L10.5596 8.64483L10.4683 8.84891L10.3609 9.06374L10.2911 9.18726L10.2159 9.31615L10.1353 9.44505L10.0279 9.60617L9.97421 9.68136L9.90439 9.77803L9.82921 9.8747L9.75939 9.96063L9.71642 10.0143L9.66809 10.068L9.61975 10.1271L9.53919 10.213L9.47474 10.2829L9.27603 10.4816L9.23307 10.5192L9.1901 10.5621L9.14714 10.5997L9.07195 10.6642L9.00213 10.7233L8.92157 10.7877L8.84638 10.8468L8.73897 10.9273L8.63156 11.0025L8.54563 11.0616L8.41136 11.1475L8.31469 11.2066L8.17506 11.2872L8.0569 11.3516L7.9119 11.4268L7.6917 11.5288L7.48225 11.6148L7.27279 11.69L7.07408 11.7544L6.83777 11.8189L6.62295 11.8672L6.39738 11.9102L6.16644 11.9424L5.87643 11.9746L5.84421 11.98H5.09232L5.07084 11.9692L4.7486 11.9316L4.54452 11.8994L4.32432 11.8565L4.12024 11.8081L3.9269 11.7544L3.75504 11.7007L3.54558 11.6255L3.34687 11.545L3.16964 11.4644L3.01389 11.3892L2.86889 11.314L2.73999 11.2388L2.59498 11.1529L2.47146 11.0723L2.40701 11.0294L2.31571 10.9649L2.21904 10.8951L2.14385 10.836L2.04718 10.7609L1.9881 10.7125L1.9344 10.6642L1.87532 10.6158L1.82162 10.5675L1.77865 10.5299L1.70883 10.4601L1.66587 10.4225L1.51549 10.2721L1.4779 10.2292L1.42419 10.1755L1.37585 10.1164L1.31141 10.0466L1.26307 9.98748L1.18788 9.89618L1.13418 9.82636L1.04825 9.71358L0.978429 9.61154L0.924723 9.53635L0.838793 9.40208L0.785087 9.31615L0.709898 9.18726L0.634709 9.05299L0.521926 8.82743L0.435997 8.63946L0.366179 8.4676L0.29099 8.26351L0.231913 8.08091L0.167466 7.84998L0.11913 7.64589L0.0815358 7.45792L0.0439415 7.21624L0.0170884 6.97994L0.00634718 6.87252L0.000976562 6.86715V6.09915L0.0117178 6.03471L0.0439415 5.73932L0.0815358 5.50302L0.129871 5.26671L0.194319 5.00892L0.258766 4.7941L0.328584 4.59001L0.409143 4.38593L0.478961 4.22481L0.527297 4.1174L0.581003 4.01536L0.623968 3.92943L0.693786 3.79516L0.779716 3.65015L0.860275 3.52126L0.956946 3.37625L0.999911 3.31718L1.06436 3.22587L1.10732 3.1668L1.17714 3.08087L1.24696 2.98957L1.2577 2.97346H1.26844L1.27918 2.95197L1.32752 2.89827L1.37585 2.83919L1.4403 2.76937L1.4779 2.72641L1.54234 2.66196L1.54771 2.65122H1.55846L1.5692 2.62974L1.67661 2.52232L1.71957 2.48473L1.77328 2.43102L1.81625 2.39343L1.88069 2.33435L1.93977 2.28602L2.02033 2.2162L2.09015 2.16249L2.17071 2.09805L2.27275 2.02286L2.38016 1.94767L2.47146 1.88322L2.5735 1.81877L2.68629 1.74896L2.82592 1.6684L2.91185 1.62006L3.19112 1.48042L3.40058 1.38912L3.55095 1.33005L3.76041 1.25486L3.93227 1.20115L4.14709 1.14208L4.35655 1.09374L4.58211 1.05078L4.8399 1.01318L5.14066 0.980957ZM5.45215 3.61793L5.36622 3.63404L5.30178 3.66089L5.23733 3.69849L5.17825 3.74682L5.12455 3.81127L5.09232 3.86498L5.0601 3.94554L5.04399 4.03684L5.03862 6.01323L5.02787 6.0186H4.51229L3.05149 6.02397L2.96019 6.04008L2.87963 6.0723L2.80981 6.12064L2.7561 6.16897L2.70777 6.23342L2.6648 6.31935L2.64332 6.39991L2.63795 6.4375V6.52343L2.65406 6.60399L2.67554 6.66307L2.70777 6.72752L2.7561 6.78659L2.80444 6.83493L2.87963 6.88327L2.95482 6.91549L3.03 6.9316L3.07297 6.93697L3.83023 6.94234H5.03862L5.04399 8.91336L5.05473 8.99392L5.07621 9.05836L5.1138 9.13355L5.16214 9.19263L5.21047 9.24097L5.28566 9.2893L5.34474 9.31615L5.43604 9.33764L5.5166 9.34301L5.59716 9.33227L5.69383 9.30004L5.75828 9.26245L5.81198 9.21948L5.84958 9.18189L5.88717 9.12818L5.93014 9.04225L5.95162 8.95632L5.95699 8.84354V6.93697L6.88074 6.94234L7.88504 6.93697L7.97097 6.9316L8.0569 6.91012L8.12135 6.88327L8.1858 6.8403L8.2395 6.79196L8.28784 6.73289L8.3308 6.65233L8.35229 6.58251L8.36303 6.50195V6.45362L8.34692 6.35694L8.32006 6.28713L8.28247 6.21731L8.23413 6.15823L8.1858 6.11527L8.11598 6.0723L8.03542 6.04008L7.95486 6.02397L5.96236 6.0186L5.95699 4.20333L5.95162 4.00461L5.93014 3.91868L5.88717 3.82738L5.83347 3.75757L5.77976 3.70923L5.70994 3.66627L5.62938 3.63404L5.55419 3.61793H5.45215Z" fill="currentColor"/>
</svg>
