<svg  viewBox="0 0 20 20" fill="none" xmlns="http://www.w3.org/2000/svg">
<path d="M3.65234 0H16.3965V0.0195312L16.4844 0.0292969L16.7188 0.0878906L16.9141 0.15625L17.0703 0.224609L17.2461 0.322266L17.3633 0.400391L17.5195 0.517578L17.666 0.654297L17.7734 0.761719L17.8613 0.869141L17.9688 1.01562L18.0664 1.18164L18.1445 1.32812L18.2422 1.58203L18.3008 1.79688L18.3398 2.03125L18.3496 2.14844V17.8516L18.3203 18.1055L18.2617 18.3496L18.1934 18.5449L18.125 18.7012L18.0273 18.8867L17.959 18.9941L17.8711 19.1113L17.793 19.209L17.7051 19.3066L17.5977 19.4141L17.4902 19.502L17.3438 19.6094L17.2168 19.6875L16.9922 19.8047L16.8457 19.8633L16.6602 19.9219L16.4258 19.9805L16.3379 20H3.70117L3.35938 19.9219L3.125 19.8438L2.89062 19.7363L2.69531 19.6191L2.57812 19.5312L2.48047 19.4531L2.35352 19.3359L2.26562 19.248L2.17773 19.1406L2.05078 18.9746L1.94336 18.7891L1.83594 18.5645L1.76758 18.3691L1.70898 18.1348L1.67969 17.9199L1.66992 17.7637V2.19727L1.68945 1.98242L1.73828 1.73828L1.79688 1.5332L1.89453 1.29883L1.98242 1.13281L2.08984 0.966797L2.1875 0.839844L2.27539 0.742188L2.38281 0.625L2.48047 0.537109L2.64648 0.410156L2.8125 0.302734L3.03711 0.185547L3.27148 0.0976562L3.48633 0.0390625L3.63281 0.00976562L3.65234 0ZM5.53711 11.6699L5.32227 11.6992L5.11719 11.7578L4.91211 11.8555L4.75586 11.9629L4.64844 12.0605L4.60938 12.0898V12.1094L4.57031 12.1289L4.48242 12.2363L4.41406 12.334L4.32617 12.4902L4.26758 12.627L4.21875 12.7832L4.18945 12.9883L4.17969 13.2715V15.1465L4.18945 15.3516L4.21875 15.5371L4.27734 15.7324L4.375 15.9375L4.45312 16.0547L4.53125 16.1523L4.64844 16.2793L4.78516 16.3867L4.92188 16.4746L5.07812 16.5527L5.24414 16.6113L5.45898 16.6504L5.58594 16.6602H6.94336L7.05078 16.6406L7.17773 16.5918L7.31445 16.4941L7.38281 16.416L7.46094 16.2891L7.5 16.1621L7.50977 16.0938V15.9961L7.48047 15.8496L7.40234 15.6934L7.33398 15.6055L7.24609 15.5273L7.08984 15.4492L6.96289 15.4199L5.5957 15.4102L5.52734 15.3809L5.46875 15.332L5.43945 15.2734L5.42969 15.1758V13.1055L5.45898 13.0176L5.51758 12.9492L5.58594 12.9199L6.93359 12.9102L7.05078 12.8906L7.17773 12.8418L7.31445 12.7441L7.39258 12.6562L7.46094 12.5391L7.5 12.4121L7.50977 12.3438V12.2461L7.48047 12.0996L7.40234 11.9434L7.33398 11.8555L7.24609 11.7773L7.08984 11.6992L6.96289 11.6699H5.53711ZM8.90625 11.6699L8.78906 11.6895L8.67188 11.7383L8.56445 11.8164L8.48633 11.8945L8.41797 12.002L8.36914 12.1289L8.34961 12.2266V16.084L8.36914 16.2109L8.4375 16.3672L8.51562 16.4648L8.60352 16.543L8.7207 16.6113L8.84766 16.6504L8.93555 16.6602H10.2832L10.4688 16.6406L10.6348 16.6016L10.8203 16.5332L10.9863 16.4453L11.123 16.3477L11.2402 16.2402L11.3379 16.1426L11.4453 15.9961L11.543 15.8203L11.6016 15.6641L11.6406 15.5176L11.6699 15.3125V13.0273L11.6504 12.8516L11.6016 12.666L11.543 12.5195L11.4648 12.3633L11.3477 12.1973L11.2305 12.0703L11.1035 11.9629L10.957 11.8652L10.8008 11.7871L10.6445 11.7285L10.4785 11.6895L10.332 11.6699H8.90625ZM12.8613 11.6699L12.7441 11.6895L12.6562 11.7285L12.5586 11.7871L12.4609 11.875L12.3926 11.9727L12.334 12.0996L12.3145 12.1973L12.3047 12.373V16.0059L12.3145 16.1426L12.3438 16.2598L12.3926 16.3574L12.4805 16.4746L12.5781 16.5527L12.7344 16.6309L12.8906 16.6602L13.0566 16.6504L13.1934 16.6016L13.291 16.543L13.3887 16.4551L13.4668 16.3574L13.5156 16.25L13.5449 16.123L13.5547 15.0879L13.5938 15.127L13.6816 15.2344L13.8184 15.3809L13.9062 15.4883L14.0137 15.6055L14.082 15.6836L14.1699 15.7812L14.2578 15.8887L14.3652 16.0059L14.4336 16.084L14.5508 16.2207L14.6387 16.3184L14.7266 16.4258L14.8145 16.5137L14.9121 16.582L15.0195 16.6309L15.1758 16.6602L15.3418 16.6504L15.459 16.6113L15.5566 16.5625L15.6543 16.4844L15.7422 16.3867L15.8008 16.2695L15.8301 16.1621L15.8398 16.0938V16.0059L15.8203 15.8789L15.7812 15.7715L15.7129 15.6543L15.5859 15.5078L15.498 15.4102L15.4297 15.332L15.3418 15.2344L15.2539 15.127L15.1465 15.0098L15.0781 14.9316L14.9707 14.8047L14.9414 14.7656L15 14.7461L15.1465 14.6582L15.2734 14.5605L15.4004 14.4434L15.5078 14.3262L15.6055 14.1895L15.7031 14.0039L15.7715 13.8184L15.8203 13.6035L15.8398 13.3594L15.8301 13.1445L15.8008 12.959L15.7422 12.7539L15.6641 12.5781L15.6055 12.4707L15.5273 12.3535L15.4102 12.2168L15.3223 12.1289L15.1562 12.002L15.0098 11.9141L14.8535 11.8359L14.668 11.7676L14.4824 11.7188L14.2383 11.6797L14.1113 11.6699H12.8613Z" fill="currentColor"/>
<path d="M9.59961 12.9102H10.2441L10.332 12.9395L10.3906 12.9883L10.4297 13.0664V15.2637L10.3906 15.3418L10.3223 15.4004L10.2344 15.4199H9.59961L9.58984 15.4102L9.58008 14.6387V14.0039L9.58984 12.9199L9.59961 12.9102Z" fill="currentColor"/>
<path d="M13.5547 12.9102H14.0527L14.2285 12.9297L14.375 12.9785L14.4824 13.0469L14.5508 13.1348L14.5898 13.2227L14.5996 13.2617V13.3984L14.5703 13.4961L14.5117 13.584L14.4336 13.6523L14.3262 13.7012L14.1699 13.7402L14.0723 13.75H13.5547L13.5449 13.7402V12.9297L13.5547 12.9102Z" fill="currentColor"/>
</svg>
