<svg width="23" height="23" viewBox="0 0 23 23" fill="currentColor" xmlns="http://www.w3.org/2000/svg">
<path d="M9.3599 1H13.4026L13.8135 1.01643L14.1915 1.06574L14.4544 1.13147L14.7995 1.26294L15.1282 1.42728L15.3254 1.55875L15.5226 1.70666L15.6869 1.85456L15.7691 1.9203L15.8841 2.05177L16.0156 2.19967L16.18 2.42975L16.3279 2.67625L16.4758 2.9885L16.5908 3.33361L16.673 3.72802L16.6894 3.90879L16.7058 4.51684V5.19063L17.774 5.20707L18.1356 5.23993L18.3985 5.30567L18.645 5.40427L18.9244 5.56861L19.138 5.73295L19.3681 5.96302L19.4996 6.1438L19.6475 6.3903L19.779 6.73541L19.8283 6.96549L19.8447 7.11339L19.8611 8.3295L19.8447 9.64421L19.7954 9.94002L19.6804 10.2851L19.5325 10.5645L19.3188 10.8439L19.1545 11.0082L18.9408 11.1726L18.7272 11.304L18.6779 11.5177L18.53 12.6352L18.3985 13.6212L18.152 15.4618L17.9712 16.8422L17.7905 18.1898L17.7083 18.5842L17.5933 18.9293L17.4618 19.2087L17.281 19.5045L17.0674 19.7675L16.9195 19.9318L16.788 20.0633L16.5579 20.244L16.3772 20.3755L16.0649 20.5563L15.7198 20.7206L15.2761 20.8685L14.8488 20.9671L14.7009 21H8.17666L7.58505 20.8685L7.14133 20.7206L6.81265 20.5727L6.48398 20.3755L6.22104 20.1783L6.02383 19.9975L5.94166 19.9318L5.82662 19.8003L5.67872 19.636L5.51438 19.4059L5.35004 19.1101L5.20214 18.765L5.11997 18.4692L5.0378 17.9762L4.70912 15.5111L4.46261 13.6376L4.18324 11.567L4.15037 11.3369L4.10107 11.2876L3.9203 11.1726L3.75596 11.0411L3.59162 10.8932L3.41085 10.6795L3.26294 10.4495L3.13147 10.1701L3.0493 9.89071L3.01643 9.67707L3 9.46343V7.2613L3.03287 6.93262L3.11504 6.62038L3.24651 6.32457L3.36154 6.1438L3.49302 5.96302L3.64092 5.79869H3.67379V5.76582L3.90386 5.58505L4.1175 5.45357L4.36401 5.33854L4.64339 5.25637L4.84059 5.2235L5.02136 5.20707H6.1553V4.08956L6.18817 3.71159L6.2539 3.38291L6.33607 3.11997L6.43468 2.87346L6.56615 2.61052L6.73048 2.34758L6.94412 2.08463L7.1249 1.88743L7.30567 1.72309L7.55218 1.54232L7.84799 1.36154L8.12736 1.23007L8.52177 1.0986L8.85045 1.03287L9.3599 1ZM9.32703 3.11997L9.04766 3.15283L8.85045 3.235L8.66968 3.35004L8.50534 3.51438L8.37387 3.72802L8.30813 3.92523L8.2917 4.02383L8.27527 4.50041V5.20707L14.5366 5.2235L14.5694 5.20707V4.0567L14.5201 3.82662L14.3887 3.56368L14.2408 3.39934L14.0764 3.26787L13.8956 3.1857L13.7149 3.1364L13.567 3.11997H9.32703ZM9.65571 12.6845L9.44207 12.7502L9.2613 12.8488L9.04766 13.046L8.89975 13.2761L8.83402 13.4733L8.81758 13.5555L8.80115 13.8841V15.6426L8.81758 15.9055L8.86689 16.1027L8.96549 16.2999L9.11339 16.4807L9.27773 16.6122L9.50781 16.7272L9.70501 16.7765H10.0008L10.198 16.7272L10.4281 16.6122L10.6089 16.4643L10.7568 16.267L10.8389 16.0863L10.8882 15.8726V13.6048L10.8389 13.3583L10.7403 13.1611L10.6253 13.0131L10.5103 12.8981L10.2966 12.7666L10.1159 12.7009L10.0337 12.6845H9.65571ZM12.811 12.6845L12.5974 12.7502L12.4002 12.8652L12.203 13.046L12.0879 13.2104L12.0058 13.4076L11.9729 13.5719L11.9565 13.8184V15.659L11.9729 15.9055L12.0222 16.1027L12.1537 16.3492L12.318 16.53L12.5481 16.6779L12.7124 16.7436L12.8603 16.7765H13.1397L13.3533 16.7272L13.5834 16.6122L13.7642 16.4643L13.8956 16.2999L13.9942 16.0863L14.0435 15.8891V13.6048L14.0107 13.424L13.9285 13.2104L13.797 13.0296L13.6656 12.8981L13.4519 12.7666L13.2712 12.7009L13.189 12.6845H12.811Z" fill="curentColor"/>
</svg>
