<svg  viewBox="0 0 20 20" fill="none" xmlns="http://www.w3.org/2000/svg">
<path d="M9.60187 0H10.3864L10.7963 0.0117096L11.6042 0.058548L12.3536 0.128806L12.8923 0.199063L13.466 0.29274L13.9461 0.386417L14.4145 0.491803L14.8595 0.608899L15.281 0.737705L15.7377 0.901639L16.0773 1.04215L16.4052 1.19438L16.6979 1.3466L16.9555 1.49883L17.2014 1.66276L17.377 1.79157L17.4941 1.88525L17.6581 2.02576L17.8103 2.16628L17.9157 2.27166L17.9977 2.36534L18.1265 2.51756L18.2436 2.66979L18.3841 2.86885L18.5129 3.06792L18.6534 3.31382L18.8173 3.62998L18.9344 3.87588L19.0515 4.15691L19.2037 4.56674L19.3443 5L19.4848 5.51522L19.5902 5.9719L19.6956 6.49883L19.7892 7.0726L19.8595 7.61124L19.918 8.18501L19.9649 8.81733L19.9883 9.34426L20 10L19.9883 10.644L19.9649 11.2061L19.9063 11.9555L19.8361 12.5878L19.7424 13.2318L19.6487 13.7471L19.5433 14.2506L19.4145 14.7541L19.3091 15.1054L19.1686 15.5269L19.0398 15.8782L18.8876 16.2178L18.7471 16.5105L18.63 16.733L18.5246 16.9087L18.4075 17.096L18.267 17.2951L18.1499 17.4473L18.0445 17.5761L17.9157 17.7166L17.7752 17.8689L17.6581 17.9742L17.4941 18.1148L17.2834 18.2787L17.1429 18.3724L16.9438 18.5012L16.7213 18.63L16.534 18.7354L16.2646 18.8642L15.9251 19.0164L15.5855 19.1452L15.1054 19.3091L14.6136 19.4496L14.0749 19.5785L13.548 19.6838L12.9859 19.7775L12.459 19.8478L12.0375 19.8946L11.3232 19.9532L10.6557 19.9883L10.1522 20H9.81265L9.32084 19.9883L8.62998 19.9532L7.95082 19.8946L7.25995 19.8126L6.86183 19.7541L6.32318 19.6604L5.71429 19.5316L5.21077 19.4028L4.78923 19.274L4.34426 19.1218L3.91101 18.9461L3.55972 18.7822L3.2904 18.6417L2.99766 18.466L2.85714 18.3724L2.65808 18.2318L2.40047 18.0211L2.25995 17.8923L2.01405 17.6464L1.90867 17.5176L1.75644 17.3302L1.60422 17.1077L1.48712 16.9321L1.31148 16.6276L1.1007 16.2061L0.960187 15.8782L0.831382 15.5386L0.690867 15.1171L0.57377 14.719L0.433255 14.1569L0.29274 13.4543L0.210773 12.9508L0.128806 12.3185L0.0702576 11.7213L0.0234192 11.0539L0 10.4684V9.54333L0.0234192 8.91101L0.0702576 8.24356L0.128806 7.66979L0.210773 7.03747L0.316159 6.41686L0.433255 5.84309L0.59719 5.18735L0.690867 4.87119L0.854801 4.3911L0.983607 4.06323L1.12412 3.74707L1.25293 3.47775L1.39344 3.22014L1.54567 2.97424L1.63934 2.83372L1.77986 2.63466L1.93208 2.44731L2.03747 2.33021L2.17799 2.17799L2.28337 2.0726L2.37705 1.99063L2.54098 1.85012L2.76347 1.68618L3.0445 1.49883L3.30211 1.3466L3.68852 1.14754L3.94614 1.03044L4.32084 0.87822L4.71897 0.737705L5.02342 0.644028L5.35129 0.550351L5.78454 0.444965L6.40515 0.316159L7.03747 0.210773L7.57611 0.140515L8.11475 0.0819672L8.73536 0.0351288L9.21546 0.0117096L9.60187 0ZM9.92974 4.00468L9.76581 4.0281L9.59016 4.08665L9.44965 4.16862L9.34426 4.25059L9.22717 4.36768L9.12178 4.53162L9.06323 4.66042L9.01639 4.82436L9.00468 4.92974V9.57845H8.96955V9.55504H8.94614L8.92272 9.5082L7.95082 8.5363L7.88056 8.45433H7.85714L7.83372 8.40749H7.8103L7.78689 8.36066L7.63466 8.22014L7.47073 8.11475L7.34192 8.05621L7.16628 8.00937L6.97892 7.99766L6.76815 8.02108L6.59251 8.07963L6.4637 8.14988L6.33489 8.25527L6.20609 8.38408L6.11241 8.5363L6.04215 8.71194L6.00703 8.87588V9.13349L6.05386 9.32084L6.11241 9.46136L6.19438 9.59016L6.32318 9.74239H6.3466L6.37002 9.78923H6.39344V9.81265L6.48712 9.89461L9.36768 12.7752L9.54333 12.8923L9.73068 12.9625L9.83607 12.9859L10.0468 12.9977L10.2693 12.9625L10.445 12.8923L10.5972 12.7986L10.7494 12.6581L13.7588 9.64871L13.8642 9.49649L13.9227 9.37939L13.9696 9.23888L13.993 9.09836V8.8993L13.9578 8.72365L13.8876 8.5363L13.8056 8.40749L13.7002 8.27869L13.548 8.16159L13.3724 8.06792L13.2201 8.02108L13.1616 8.00937H12.8337L12.6464 8.05621L12.459 8.14988L12.3302 8.25527L11.0187 9.56674L10.9953 9.57845V5.31616L10.9836 4.84777L10.9368 4.66042L10.8431 4.47307L10.7494 4.34426L10.6323 4.22717L10.4684 4.12178L10.3396 4.06323L10.1522 4.01639L10.0585 4.00468H9.92974ZM7.89227 14.0047L7.74005 14.0281L7.55269 14.0984L7.38876 14.2037L7.24824 14.3326L7.14286 14.4848L7.06089 14.6604L7.01405 14.8595L7.00234 15.0351L7.03747 15.2459L7.09602 15.4215L7.20141 15.5972L7.30679 15.7143L7.45902 15.8314L7.64637 15.9251L7.82201 15.9719L7.89227 15.9836H12.1077L12.2834 15.9485L12.459 15.8782L12.5878 15.7963L12.7166 15.6909L12.8337 15.5386L12.9274 15.3513L12.9625 15.2459L12.9859 15.1171V14.8712L12.9391 14.6604L12.8454 14.4731L12.7635 14.356L12.6698 14.2506L12.541 14.1569L12.3653 14.0632L12.2014 14.0164L12.1194 14.0047H7.89227Z" fill="currentColor"/>
</svg>
