<svg width="23" height="23" viewBox="0 0 23 23" fill="currentColor" xmlns="http://www.w3.org/2000/svg">
<path d="M9.71436 1.90918H13.7236L14.7344 1.92041L15.4419 1.94287L16.0034 1.97656L16.5874 2.03271L17.0366 2.1001L17.4409 2.18994L17.7554 2.27979L18.0249 2.38086L18.2944 2.50439L18.5078 2.62793L18.6987 2.7627L18.811 2.85254L18.9233 2.95361L19.0132 3.03223L19.1592 3.18945L19.2827 3.34668L19.4399 3.58252L19.541 3.76221L19.6533 4.00928L19.7544 4.27881L19.8442 4.58203L19.9229 4.94141L19.979 5.25586L19.9341 5.27832L19.5972 5.30078L19.2939 5.3457L19.002 5.41309L18.6987 5.51416L18.373 5.66016L18.1709 5.77246L17.9351 5.92969L17.7891 6.04199L17.6318 6.17676L17.4858 6.31152L12.3647 11.4326L12.3086 11.5L12.2637 11.5449H12.2412L12.2188 11.5898L12.0166 11.792L11.9492 11.8818H11.9268L11.9043 11.9268L11.7695 12.0952L11.6235 12.2974L11.5225 12.4546L11.3989 12.668L11.2642 12.9263L11.1406 13.207L10.9946 13.6113L10.5903 14.8242L10.4331 15.2847L10.2759 15.7676L10.1636 16.1045L10.1187 16.2617L10.085 16.4976L10.0737 16.6099V16.7671L10.0962 16.9805L10.1411 17.2051L10.2197 17.4409L10.3208 17.6543L10.4443 17.8452L10.5679 18.0024L10.7588 18.1934L10.9048 18.3057L11.1069 18.4292L11.3203 18.5303L11.5112 18.5977L11.7246 18.6426L11.8931 18.665H12.23L12.4546 18.6313L12.7466 18.5527L13.207 18.3955L13.6899 18.2383L14.1504 18.0811L14.959 17.8115L15.3857 17.6655L15.689 17.542L15.9697 17.4072L16.1382 17.3174L16.3965 17.1602L16.5874 17.0254L16.7334 16.9131L16.8794 16.7896L16.9692 16.7109L17.1152 16.5762L17.4072 16.2842H17.4297L17.4409 16.2505L17.5083 16.1943L17.5757 16.1157L17.6431 16.0596L17.7104 15.981L17.7778 15.9248L17.8452 15.8462L17.9126 15.79L17.98 15.7114L18.0474 15.6553L18.1147 15.5767L18.1934 15.5093L18.2495 15.4419L18.3281 15.3745L18.3843 15.3071L18.4629 15.2397L18.519 15.1724L18.5977 15.105L18.6538 15.0376L18.7324 14.9702L18.7886 14.9028L18.8672 14.8354L18.9233 14.7681L19.002 14.7007L19.0581 14.6333L19.1367 14.5659L19.1929 14.4985L19.2827 14.4199L19.3276 14.3638L19.4175 14.2852L19.979 13.7236L20.0015 13.6899H20.0239L20.0352 13.6562H20.0576L20.0801 13.6113L20.125 13.5889L20.1362 13.6562L20.125 15.251L20.1138 15.9473L20.0913 16.4751L20.0688 16.8906L20.0127 17.4634L19.9678 17.8003L19.8892 18.2271L19.7881 18.6089L19.6982 18.8784L19.5747 19.1704L19.4399 19.4175L19.3501 19.5522L19.2378 19.7095L19.1143 19.8555L19.0356 19.9453L18.9458 20.0239L18.8672 20.1025L18.7549 20.1924L18.5527 20.3384L18.3394 20.4619L18.1597 20.5518L17.98 20.6304L17.7666 20.709L17.4521 20.7988L17.0366 20.8887L16.6885 20.9448L16.1831 21.001L15.543 21.0459L14.9927 21.0684L14.5771 21.0796H8.45654L7.64795 21.0571L7.0752 21.0234L6.6709 20.9897L6.30029 20.9448L5.82861 20.8662L5.50293 20.7876L5.19971 20.6978L4.90771 20.5854L4.69434 20.4844L4.53711 20.3945L4.36865 20.2822L4.22266 20.1699L4.06543 20.0352L3.86328 19.833L3.73975 19.6758L3.63867 19.541L3.51514 19.3389L3.40283 19.1255L3.31299 18.9121L3.17822 18.5078L3.08838 18.126L3.021 17.7441L2.96484 17.2949L2.91992 16.7446L2.88623 16.0371L2.875 15.543L2.86377 14.5547V8.44531L2.875 7.38965L2.89746 6.64844L2.91992 6.22168L2.96484 5.69385L3.00977 5.32324L3.08838 4.86279L3.17822 4.49219L3.25684 4.24512L3.36914 3.94189L3.51514 3.6499L3.67236 3.40283L3.7959 3.24561L3.88574 3.1333H3.9082L3.93066 3.08838L4.09912 2.91992L4.25635 2.79639L4.40234 2.68408L4.62695 2.54932L4.86279 2.42578L5.12109 2.32471L5.39062 2.23486L5.75 2.14502L6.10938 2.07764L6.51367 2.02148L6.98535 1.97656L7.54688 1.94287L8.23193 1.92041L9.71436 1.90918ZM7.65918 7.90625L7.47949 7.92871L7.35596 7.97363L7.24365 8.04102L7.13135 8.14209L7.05273 8.25439L6.99658 8.3667L6.95166 8.54639V8.70361L6.97412 8.81592L7.01904 8.93945L7.10889 9.07422L7.22119 9.18652L7.34473 9.26514L7.51318 9.32129L7.56934 9.33252H13.9932L14.1729 9.2876L14.3188 9.19775L14.4312 9.09668L14.5098 8.99561L14.5771 8.84961L14.5996 8.75977L14.6108 8.58008L14.5771 8.41162L14.521 8.27686L14.4424 8.16455L14.375 8.08594L14.2627 8.00732L14.1504 7.95117L14.0156 7.91748L13.9033 7.90625H7.65918ZM7.55811 11.7471L7.41211 11.7808L7.2998 11.8369L7.19873 11.9155L7.14258 11.9604L7.05273 12.084L6.97412 12.2637L6.95166 12.3872V12.5444L6.98535 12.6792L7.03027 12.7915L7.10889 12.9038L7.1875 12.9937L7.2998 13.0723L7.41211 13.1284L7.54688 13.1621L7.64795 13.1733H9.97266L10.186 13.1621L10.332 13.1172L10.4443 13.061L10.5566 12.9712L10.6577 12.8589L10.7363 12.7017L10.77 12.5557V12.3423L10.7251 12.1851L10.6353 12.0278L10.5342 11.9155L10.4219 11.8369L10.3096 11.7808L10.1748 11.7471H7.55811ZM7.5918 15.5767L7.45703 15.5991L7.32227 15.6553L7.19873 15.7451L7.09766 15.8462L7.00781 16.0034L6.96289 16.1382L6.95166 16.2168V16.374L6.98535 16.52L7.0752 16.6997L7.19873 16.8345L7.35596 16.9355L7.47949 16.9805L7.63672 17.0029H9.16406L9.29883 16.9805L9.45605 16.9131L9.57959 16.8232L9.6582 16.7446L9.72559 16.6436L9.78174 16.5312L9.81543 16.374V16.2168L9.78174 16.0596L9.69189 15.8799L9.59082 15.7676L9.50098 15.689L9.36621 15.6216L9.18652 15.5767H7.5918Z" fill="currentColor"/>
<path d="M17.3848 8.44531H17.4746L17.5645 8.49023L17.6318 8.60254L17.7554 8.91699L17.9014 9.20898L18.0811 9.50098L18.2158 9.69189L18.418 9.93896L18.5864 10.1187L18.71 10.2422L18.7998 10.3208L18.957 10.4556L19.1367 10.5903L19.3052 10.7026L19.5073 10.8262L19.7207 10.9385L20.0239 11.0732L20.1699 11.1294L20.2598 11.1855L20.3047 11.2754V11.354L20.2373 11.4551L16.1045 15.5879H16.082V15.6104H16.0596V15.6328L15.9697 15.7114L15.79 15.8574L15.644 15.9585L15.4644 16.0708L15.2622 16.1831L15.0376 16.2842L14.7007 16.4077L13.5552 16.7896L13.1284 16.9355L12.6455 17.0928L12.1963 17.2388L12.1401 17.25H11.9604L11.8145 17.2051L11.7134 17.1377L11.6348 17.0703L11.5337 16.9131L11.5 16.812L11.4888 16.666L11.5225 16.4976L11.6572 16.0933L11.8145 15.6104L11.9717 15.1499L12.1289 14.667L12.2861 14.2065L12.4209 13.8135L12.5444 13.5215L12.6904 13.252L12.7803 13.1172L12.915 12.9263L13.0386 12.7803L13.1172 12.6904L13.3081 12.4995L13.3193 12.4771H13.3418L13.3643 12.4321H13.3867L13.4092 12.3872H13.4316L13.4541 12.3423H13.4766L13.499 12.2974L13.5889 12.2075H13.6113L13.6338 12.1626H13.6562L13.6787 12.1177H13.7012L13.7236 12.0728H13.7461L13.7686 12.0278H13.791L13.8135 11.9829H13.8359L13.8584 11.938H13.8809L13.9033 11.8931H13.9258L13.9482 11.8481H13.9707L13.9932 11.8032H14.0156L14.0381 11.7583H14.0605L14.083 11.7134H14.1055L14.1279 11.6685H14.1504L14.1729 11.6235H14.1953L14.2178 11.5786H14.2402L14.2627 11.5337H14.2852L14.3076 11.4888H14.3301L14.3525 11.4438L14.7568 11.0396H14.7793L14.8018 10.9946L14.8467 10.9497H14.8691L14.8916 10.9048L14.9365 10.8599H14.959L14.9814 10.8149L15.0264 10.77H15.0488L15.0713 10.7251H15.0938L15.1162 10.6802H15.1387L15.1611 10.6353H15.1836L15.2061 10.5903H15.2285L15.251 10.5454H15.2734L15.2959 10.5005H15.3184L15.3408 10.4556H15.3633L15.3857 10.4106H15.4082L15.4307 10.3657H15.4531L15.4756 10.3208H15.498L15.5205 10.2759H15.543L15.5654 10.231H15.5879L15.6104 10.186H15.6328L15.6553 10.1411H15.6777L15.7002 10.0962H15.7227L15.7451 10.0513H15.7676L15.79 10.0063H15.8125L15.835 9.96143H15.8574L15.8799 9.9165H15.9023L15.9248 9.87158H15.9473L15.9697 9.82666H15.9922L16.0146 9.78174H16.0371L16.0596 9.73682H16.082L16.1045 9.69189H16.127L16.1494 9.64697H16.1719L16.1943 9.60205H16.2168L16.2393 9.55713L16.3291 9.46729H16.3516L16.374 9.42236H16.3965L16.4189 9.37744H16.4414L16.4639 9.33252L16.5537 9.24268H16.5762L16.5986 9.19775H16.6211L16.6436 9.15283L16.7334 9.06299H16.7559L16.7783 9.01807H16.8008L16.8232 8.97314H16.8457L16.8682 8.92822H16.8906L16.9131 8.8833H16.9355L16.958 8.83838H16.9805L17.0029 8.79346H17.0254L17.0479 8.74854H17.0703L17.0928 8.70361H17.1152L17.1377 8.65869L17.2837 8.5127L17.3848 8.44531Z" fill="currentColor"/>
<path d="M19.9565 6.69336L20.1812 6.70459L20.4507 6.74951L20.6304 6.80566L20.8101 6.87305L21.0459 6.99658L21.1807 7.08643L21.293 7.17627L21.4053 7.27734L21.5513 7.42334L21.6636 7.56934L21.7983 7.78271L21.8994 7.99609L21.978 8.23193L22.0342 8.5127L22.0454 8.60254V8.95068L22.0005 9.23145L21.9331 9.46729L21.8433 9.68066L21.7422 9.87158L21.6074 10.0625L21.4727 10.2197L21.2817 10.4106L21.1694 10.478L21.0684 10.5117L21.001 10.5229H20.8999L20.6753 10.478L20.3945 10.3882L20.1699 10.2983L19.9565 10.1973L19.7656 10.085L19.6309 9.99512L19.4512 9.86035L19.2939 9.72559L19.1143 9.55713L18.9121 9.33252L18.7437 9.10791L18.6089 8.89453L18.4741 8.63623L18.3618 8.37793L18.272 8.08594L18.2271 7.88379V7.7041L18.272 7.56934L18.3394 7.46826L18.3955 7.40088H18.418L18.4404 7.35596L18.4854 7.31104H18.5078L18.519 7.27734L18.6089 7.19873L18.7998 7.05273L18.9683 6.95166L19.1479 6.86182L19.3613 6.7832L19.5972 6.72705L19.7544 6.70459L19.9565 6.69336Z" fill="currentColor"/>
</svg>
