<svg width="23" height="24" viewBox="0 0 23 24" fill="none" xmlns="http://www.w3.org/2000/svg">
<path d="M7.25488 2.40918H15.7451L16.1719 2.43164L16.5986 2.47656L16.958 2.53271L17.3062 2.61133L17.6543 2.7124L17.9126 2.80225L18.1934 2.91455L18.3618 2.99316L18.6763 3.16162L18.9458 3.33008L19.1255 3.46484L19.249 3.55469L19.3613 3.65576L19.4849 3.75684L19.7432 4.01514L19.8218 4.10498L19.9453 4.25098L20.0801 4.43066L20.2148 4.63281L20.3047 4.77881L20.4507 5.03711L20.5854 5.31787L20.709 5.63232L20.8213 5.96924L20.8999 6.27246L20.9673 6.57568L21.0347 7.0249L21.0684 7.37305L21.0796 7.55273L21.0908 7.88965V16.1216L21.0684 16.6494L21.0234 17.0762L20.9561 17.4805L20.8662 17.8735L20.7314 18.3115L20.6079 18.626L20.4731 18.918L20.3721 19.1089L20.2373 19.3335L20.1475 19.4683L20.0352 19.6255L19.9229 19.7715L19.7769 19.9399L19.7319 19.9961L19.5073 20.2207L19.4175 20.2993L19.2715 20.4229L19.1255 20.5352L18.9346 20.6699L18.6987 20.8159L18.4517 20.9507L18.1484 21.0967L17.8564 21.209L17.5195 21.3213L17.0703 21.4336L16.6885 21.501L16.3403 21.5459L15.9023 21.5796L15.498 21.5908L7.08643 21.5796L6.62598 21.5459L6.22168 21.4897L5.81738 21.4111L5.44678 21.3101L5.07617 21.1865L4.8291 21.0854L4.50342 20.9282L4.3125 20.8271L4.09912 20.6924L3.9082 20.5576L3.70605 20.4004L3.5376 20.2544L3.21191 19.9287L3.11084 19.8052L2.9873 19.6592L2.85254 19.4683L2.74023 19.2998L2.60547 19.064L2.4707 18.8057L2.36963 18.5923L2.25732 18.3003L2.16748 18.0195L2.08887 17.7163L2.02148 17.3906L1.96533 17.0088L1.92041 16.5371L1.90918 16.3125L1.89795 15.897V8.06934L1.90918 7.65381L1.93164 7.29443L1.97656 6.90137L2.05518 6.44092L2.15625 6.03662L2.25732 5.71094L2.39209 5.36279L2.52686 5.0708L2.66162 4.82373L2.83008 4.5542L2.91992 4.43066L3.05469 4.25098L3.18945 4.09375L3.29053 3.98145L3.57129 3.70068L3.69482 3.59961L3.86328 3.46484L4.0542 3.33008L4.26758 3.19531L4.44727 3.09424L4.70557 2.95947L5.02002 2.82471L5.30078 2.72363L5.64893 2.62256L6.05322 2.53271L6.39014 2.47656L6.80566 2.43164L7.25488 2.40918ZM10.3882 3.84668L7.22119 3.85791L6.86182 3.88037L6.55859 3.91406L6.24414 3.97021L5.96338 4.0376L5.73877 4.10498L5.4917 4.19482L5.19971 4.32959L4.99756 4.44189L4.79541 4.57666L4.63818 4.7002L4.46973 4.84619L4.32373 4.99219L4.24512 5.08203L4.11035 5.25049L4.02051 5.38525L3.91943 5.54248L3.76221 5.8457L3.67236 6.05908L3.54883 6.42969L3.45898 6.81152L3.41406 7.06982L3.36914 7.51904L3.35791 7.77734V16.189L3.38037 16.5596L3.42529 16.9189L3.48145 17.2109L3.56006 17.5142L3.67236 17.8511L3.70605 17.8848L4.64941 17.2559L5.13232 16.9302L5.26709 16.8403L5.75 16.5146L6.18799 16.2227L6.6709 15.897L6.83936 15.7847L7.32227 15.459L7.52441 15.3467L7.74902 15.2568L7.95117 15.2007L8.11963 15.167L8.34424 15.1445H8.56885L8.86084 15.1782L9.11914 15.2456L9.34375 15.3354L9.55713 15.4478L9.74805 15.5825L9.89404 15.7061L10.0063 15.7959L10.186 15.9419L10.3433 16.0542L10.5229 16.1553L10.7026 16.2339L10.9048 16.3013L11.1069 16.3462L11.2866 16.3687H11.6797L11.9604 16.3237L12.23 16.2451L12.4321 16.1553L12.6006 16.0654L12.7578 15.9531L12.8813 15.8521L13.0386 15.7173L13.207 15.5713L13.3193 15.4702L13.4429 15.3691L13.6001 15.2344L13.7686 15.0884L13.8921 14.9873L14.0156 14.875L14.1392 14.7739L14.2627 14.6616L14.3862 14.5605L14.5435 14.4258L14.7119 14.2798L14.8354 14.1787L14.959 14.0664L15.0825 13.9653L15.2061 13.853L15.2959 13.7856V13.7632L15.3408 13.7407L15.498 13.606L15.6104 13.5049L15.7339 13.4038L15.8462 13.3027L15.9697 13.2017L16.3066 12.9097L16.4302 12.8086L16.5537 12.6963L16.6772 12.5952L16.7896 12.4941L16.9692 12.3594L17.1152 12.2695L17.2837 12.1797L17.4521 12.1123L17.6543 12.0562L17.8115 12.0225L18.0249 12H18.3169L18.5864 12.0337L18.811 12.0898L19.0244 12.1685L19.2041 12.2583L19.3164 12.3257L19.5073 12.4604L19.6309 12.5615L19.6421 12.5391V7.95703L19.6309 7.60889L19.6084 7.30566L19.5635 6.95752L19.5073 6.66553L19.4287 6.3623L19.3389 6.09277L19.2266 5.82324L19.1143 5.59863L18.9683 5.36279L18.856 5.20557L18.7324 5.05957L18.6538 4.96973L18.4629 4.77881L18.3057 4.65527L18.1597 4.54297L17.8789 4.37451L17.6655 4.26221L17.3623 4.13867L17.0479 4.0376L16.7559 3.97021L16.4302 3.91406L15.981 3.86914L15.79 3.85791L14.5547 3.84668H10.3882Z" fill="currentColor"/>
<path d="M8.44531 5.87939H8.80469L9.06299 5.91309L9.32129 5.98047L9.55713 6.07031L9.79297 6.19385L9.96143 6.30615L10.1187 6.42969L10.2983 6.59814L10.3994 6.72168L10.4893 6.83398L10.624 7.04736L10.7139 7.22705L10.7812 7.39551L10.8486 7.62012L10.8936 7.84473L10.916 8.13672L10.9048 8.40625L10.8599 8.66455L10.7925 8.90039L10.7139 9.10254L10.6016 9.32715L10.5117 9.46191L10.377 9.6416L10.3208 9.70898H10.2983L10.2759 9.75391L10.186 9.84375L10.0962 9.92236L9.9502 10.0347L9.74805 10.1582L9.56836 10.248L9.34375 10.3379L9.0293 10.4165L8.771 10.4502H8.45654L8.19824 10.4165L7.92871 10.3491L7.7041 10.2593L7.52441 10.1694L7.36719 10.0796L7.23242 9.97852L7.10889 9.87744L7.00781 9.7876L6.9292 9.69775L6.82812 9.58545L6.69336 9.39453L6.58105 9.20361L6.49121 9.00146L6.4126 8.76562L6.35645 8.49609L6.33398 8.29395V8.03564L6.36768 7.76611L6.42383 7.51904L6.51367 7.27197L6.61475 7.05859L6.76074 6.83398L6.87305 6.68799L7.03027 6.51953L7.16504 6.396L7.36719 6.25L7.53564 6.14893L7.71533 6.05908L7.9624 5.96924L8.25439 5.90186L8.44531 5.87939Z" fill="currentColor"/>
</svg>
