<svg width="36" height="41" viewBox="0 0 36 41" fill="none" xmlns="http://www.w3.org/2000/svg">
<g clip-path="url(#clip0_1397_66)">
<path fill-rule="evenodd" clip-rule="evenodd" d="M0 4.78837V23.803V25.1118L2.51196 27.6238H5.89415H6.38719H8.73773H14.703H16.7974L10.4102 21.2366H8.73772H6.38717V19.0385H8.86729V13.8154H6.38717V9.89191L17.9184 21.2366V27.6238H24.3056L24.2811 18.7398L6.31656 0.967529H2.53171L0.0197299 3.47958V4.78835H0L0 4.78837ZM2.17624 33.8268H4.52182V35.6089H2.17624V38.2503H4.52182V40.0323H0.121952V31.1854H4.52182V32.9674H2.17624V33.8268V33.8268ZM7.00311 40.0323V31.1854H9.05739V38.2503H10.7474L11.0387 40.0323H7.00309H7.00311ZM16.9729 32.9674H14.9188V38.2503H16.9729V37.3909H16.361L15.283 35.6089H19.0272V38.7053C19.0272 39.0676 18.879 39.3793 18.5828 39.6405C18.2866 39.9017 17.9247 40.0323 17.4974 40.0323H14.3943C13.9766 40.0323 13.6172 39.9017 13.3161 39.6405C13.015 39.3793 12.8645 39.0676 12.8645 38.7053V32.5125C12.8645 32.1418 13.015 31.8279 13.3161 31.5709C13.6172 31.3139 13.9767 31.1854 14.3943 31.1854H17.4974C17.9247 31.1854 18.2866 31.3139 18.5828 31.5709C18.879 31.8279 19.0272 32.1418 19.0272 32.5125V34.7116H16.9729V32.9675V32.9674ZM27.9335 40.0323H25.8792L23.6793 35.6089V40.0323H21.6251V31.1854H23.6793L25.8792 35.988V31.1854H27.9335V40.0323ZM33.8093 32.9674H32.4981V33.9911L35.8782 36.0639V38.6926C35.8782 39.055 35.73 39.3646 35.4338 39.6216C35.1376 39.8786 34.7757 40.0071 34.3484 40.0071H31.9737C31.5463 40.0071 31.1845 39.8786 30.8883 39.6216C30.592 39.3646 30.4439 39.055 30.4439 38.6926V37.1634H32.4981V38.2251H33.8093V37.1508L30.4439 35.078V32.5125C30.4439 32.1418 30.5944 31.8279 30.8955 31.5709C31.1967 31.3139 31.556 31.1854 31.9737 31.1854H34.3483C34.7756 31.1854 35.1375 31.3139 35.4338 31.5709C35.73 31.8279 35.8782 32.1418 35.8782 32.5125V33.9911H33.8093V32.9674ZM31.7648 11.1492H18.9609L25.3481 17.5365H29.6127V21.3309H25.8005V27.6238H33.488L36 25.1118V23.803V22.113V21.4678V17.5365V17.0984V13.6679L33.4987 11.1666L31.7648 11.1492ZM36 0.967529H8.7598L15.1471 7.35478H29.6127L36 0.967529Z" fill="#1E1919"/>
</g>
<defs>
<clipPath id="clip0_1397_66">
<rect width="36" height="39.0649" fill="white" transform="translate(0 0.967529)"/>
</clipPath>
</defs>
</svg>
