<svg width="17" height="17" viewBox="0 0 17 17" fill="currentColor" xmlns="http://www.w3.org/2000/svg">
<path d="M8.12646 7.96045H8.76562L9.36328 7.99365L9.5874 8.01025L9.85303 8.05176L10.0854 8.10986L10.3594 8.20117L10.5752 8.29248L10.7495 8.37549L10.9404 8.4834L11.0898 8.57471L11.2227 8.66602L11.3804 8.78223L11.4717 8.85693L11.5796 8.94824L11.6792 9.03955L11.7871 9.13916L11.8369 9.18896V9.20557H11.8535L11.9116 9.27197L12.0029 9.37158L12.0776 9.46289L12.1938 9.6123L12.3101 9.77832L12.4097 9.93604L12.5093 10.1104L12.584 10.2515L12.667 10.4341L12.7583 10.6665L12.833 10.8989L12.8994 11.1646L12.9409 11.3887L12.9741 11.6709L12.9824 11.8037L12.9907 12.2769V14.5513L12.9824 14.8003L12.9658 14.9663L12.9326 15.0908L12.8745 15.2319L12.8081 15.3647L12.7417 15.4727L12.667 15.564L12.6089 15.6221L12.4927 15.6968L12.4097 15.7383L12.2354 15.7964L12.0361 15.8379L11.7871 15.8711L11.4551 15.896L11.0732 15.9126L10.5171 15.9209H10.2017L8.25928 15.9126L7.57031 15.9043L5.14648 15.896L4.98047 15.8794L4.83105 15.8462L4.70654 15.7964L4.54883 15.7134L4.44092 15.6304L4.34131 15.5391L4.2583 15.4478L4.17529 15.3232L4.10889 15.1987L4.05078 15.041L4.02588 14.9165L4.00928 14.7422L3.98438 13.1982V12.4678L3.99268 12.2104L4.01758 11.8286L4.05078 11.5298L4.10059 11.2227L4.16699 10.9238L4.2251 10.7163L4.2998 10.4922L4.38281 10.293L4.49902 10.0522L4.63184 9.82812L4.69824 9.72852L4.78125 9.6123L4.88086 9.48779L4.93066 9.42139H4.94727L4.96387 9.38818L5.08838 9.25537L5.25439 9.08936L5.3208 9.03125L5.44531 8.92334L5.72754 8.70752L5.82715 8.64111L5.98486 8.5415L6.17578 8.43359L6.3999 8.32568L6.60742 8.24268L6.88135 8.15137L7.13867 8.08496L7.4375 8.02686L7.68652 7.99365L7.97705 7.96875L8.12646 7.96045Z" fill="#111827"/>
<path d="M8.30078 1.0791H8.65771L8.90674 1.104L9.16406 1.15381L9.39648 1.22021L9.5708 1.28662L9.72021 1.35303L9.85303 1.41943L9.98584 1.49414L10.1851 1.62695L10.3013 1.71826L10.4092 1.80957L10.5088 1.90088L10.6084 2.00049L10.6665 2.06689L10.7578 2.1748L10.8657 2.32422L10.9819 2.50684L11.0732 2.67285L11.1729 2.89697L11.2476 3.10449L11.3057 3.32031L11.3472 3.54443L11.3638 3.66895L11.3721 3.77686V4.17529L11.3472 4.39111L11.3223 4.54053L11.2725 4.75635L11.1895 5.00537L11.1147 5.17969L11.0483 5.3125L10.9736 5.45361L10.8989 5.56982L10.7993 5.71094L10.6914 5.84375L10.5088 6.04297L10.3926 6.15088L10.3013 6.22559L10.1602 6.3335L10.019 6.4248L9.87793 6.50781L9.73682 6.58252L9.521 6.67383L9.27197 6.75684L9.05615 6.80664L8.86523 6.83984L8.71582 6.85645L8.58301 6.86475H8.35059L8.15137 6.84814L7.93555 6.81494L7.71973 6.76514L7.55371 6.71533L7.32129 6.62402L7.11377 6.52441L6.97266 6.44141L6.79834 6.3252L6.69043 6.24219L6.58252 6.15088L6.51611 6.09277L6.31689 5.89355L6.24219 5.80225L6.14258 5.67773L6.00977 5.47852L5.91016 5.3042L5.81885 5.11328L5.74414 4.91406L5.70264 4.78955L5.65283 4.59863L5.61133 4.35791L5.59473 4.2085L5.58643 4.08398V3.85986L5.60303 3.64404L5.63623 3.42822L5.69434 3.1792L5.76904 2.95508L5.86035 2.73926L5.97656 2.51514L6.10107 2.32422L6.18408 2.20801L6.30029 2.06689L6.3916 1.96729L6.54102 1.81787L6.63232 1.74316L6.73193 1.66016L6.89795 1.54395L7.06396 1.44434L7.25488 1.34473L7.4292 1.27002L7.59521 1.21191L7.76953 1.16211L7.96045 1.12061L8.11816 1.0957L8.30078 1.0791Z" fill="#111827"/>
<path d="M2.40723 7.97705H2.92188L3.2207 7.99365L3.47803 8.02686L3.68555 8.07666L3.83496 8.12646L4.00928 8.20117L4.15039 8.27588L4.34961 8.40869L4.44922 8.4834L4.44092 8.5249L4.38281 8.58301L4.32471 8.64941L4.2334 8.74902L4.15869 8.84033L4.06738 8.94824L3.95947 9.09766L3.87646 9.21387L3.75195 9.40479L3.66064 9.5625L3.59424 9.67871L3.50293 9.86963L3.40332 10.1021L3.32031 10.3345L3.2373 10.6084L3.1626 10.9238L3.11279 11.2061L3.07129 11.5049L3.04639 11.7788L3.02979 11.9946L3.01318 12.4678V13.3477L3.02979 14.6924V14.8086L3.00488 14.8252L2.93018 14.8335H0.929688L0.788574 14.8169L0.664062 14.7837L0.522949 14.7256L0.390137 14.6426L0.290527 14.5513L0.249023 14.5098L0.190918 14.4434L0.116211 14.3271L0.0581055 14.2109L0.0166016 14.0781L0 14.0283V9.94434L0.0498047 9.72852L0.0996094 9.5376L0.166016 9.36328L0.273926 9.13916L0.390137 8.95654L0.489746 8.82373L0.589355 8.70752L0.73877 8.55811L0.830078 8.4834L0.937988 8.40039L1.0625 8.31738L1.23682 8.21777L1.40283 8.14307L1.56055 8.08496L1.75146 8.03516L1.93408 8.00195L2.1084 7.98535L2.40723 7.97705Z" fill="#111827"/>
<path d="M14.1196 7.97705H14.6758L14.9912 7.99365L15.1655 8.01855L15.3481 8.06006L15.5723 8.13477L15.7383 8.20947L15.896 8.29248L16.0122 8.36719L16.1699 8.4834L16.2529 8.55811L16.3193 8.61621L16.4189 8.71582L16.4937 8.80713L16.5933 8.93164L16.7095 9.11426L16.8008 9.28857L16.8838 9.49609L16.9419 9.69531L16.9834 9.88623H17V14.0283L16.9834 14.0366L16.9419 14.1694L16.8755 14.3188L16.7925 14.4434L16.7012 14.543L16.6182 14.6177L16.4937 14.7007L16.3525 14.7671L16.2031 14.8086L16.1118 14.8252L16.0039 14.8335H14.0449L13.9868 14.8252L13.9702 14.8086V14.5513L13.9785 13.6216V12.3018L13.9619 11.9199L13.9287 11.5049L13.8789 11.1313L13.8208 10.8325L13.771 10.625L13.6963 10.3677L13.605 10.1104L13.5137 9.89453L13.4141 9.68701L13.3062 9.49609L13.2065 9.33008L13.0986 9.17236L13.0322 9.08105L12.9575 8.98145L12.8828 8.89014L12.7666 8.74902L12.5674 8.5332L12.5425 8.5083L12.5591 8.4751L12.7085 8.36719L12.833 8.28418L12.999 8.19287L13.2065 8.10986L13.3726 8.06006L13.5801 8.01855L13.771 7.99365L14.1196 7.97705Z" fill="#111827"/>
<path d="M14.2109 3.2041H14.4766L14.6841 3.229L14.8833 3.27881L15.0825 3.35352L15.2734 3.45312L15.4229 3.55273L15.5391 3.64404L15.6719 3.76855L15.7549 3.85986L15.8545 3.99268L15.9209 4.10059L16.0205 4.2915L16.0952 4.49072L16.1367 4.64844L16.1616 4.79785L16.1699 4.88086V5.18799L16.145 5.3623L16.1118 5.51172L16.0703 5.64453L16.0205 5.77734L15.9541 5.91016L15.8628 6.05957L15.7632 6.19238L15.6802 6.28369L15.6221 6.3501L15.5557 6.4082L15.4561 6.49121L15.2817 6.60742L15.0908 6.70703L14.8916 6.78174L14.6841 6.83154L14.5264 6.85645L14.4102 6.86475H14.2524L14.0864 6.84814L13.9121 6.81494L13.771 6.77344L13.6133 6.71533L13.4307 6.62402L13.2563 6.50781L13.165 6.43311L13.0654 6.3418L12.9575 6.23389L12.8496 6.09277L12.7666 5.96826L12.667 5.77734L12.6006 5.61133L12.5508 5.42041L12.5176 5.22119L12.5093 5.10498V4.97217L12.5259 4.78125L12.5591 4.60693L12.6006 4.45752L12.667 4.2915L12.7334 4.15869L12.7998 4.04248L12.8662 3.95117L12.9492 3.84326L13.0488 3.73535L13.1069 3.67725L13.1982 3.60254L13.3228 3.51123L13.4722 3.41992L13.6631 3.32861L13.8623 3.26221L14.0034 3.229L14.2109 3.2041Z" fill="#111827"/>
<path d="M2.52344 3.2041H2.78906L2.99658 3.229L3.1958 3.27881L3.39502 3.35352L3.58594 3.45312L3.73535 3.55273L3.85156 3.64404L3.98438 3.76855L4.06738 3.85986L4.16699 3.99268L4.2666 4.15869L4.35791 4.34961L4.42432 4.54883L4.46582 4.73975L4.48242 4.88086V5.18799L4.45752 5.3623L4.42432 5.51172L4.38281 5.64453L4.31641 5.81055L4.2334 5.96826L4.13379 6.11768L4.04248 6.23389L3.93457 6.3501L3.86816 6.4082L3.76855 6.49121L3.59424 6.60742L3.40332 6.70703L3.2041 6.78174L2.99658 6.83154L2.83887 6.85645L2.72266 6.86475H2.56494L2.39893 6.84814L2.22461 6.81494L2.0835 6.77344L1.92578 6.71533L1.74316 6.62402L1.56885 6.50781L1.47754 6.43311L1.37793 6.3418L1.27002 6.23389L1.16211 6.09277L1.0791 5.96826L0.979492 5.77734L0.913086 5.60303L0.863281 5.42041L0.830078 5.21289L0.821777 5.10498V4.97217L0.838379 4.78955L0.871582 4.60693L0.921387 4.44092L0.979492 4.2915L1.0459 4.15869L1.1123 4.04248L1.17871 3.95117L1.26172 3.84326L1.36133 3.73535L1.41943 3.67725L1.51074 3.60254L1.63525 3.51123L1.78467 3.41992L1.97559 3.32861L2.1748 3.26221L2.31592 3.229L2.52344 3.2041Z" fill="#111827"/>
</svg>
