<svg width="17" height="17" viewBox="0 0 17 17" fill="currentColor" xmlns="http://www.w3.org/2000/svg">
<path d="M2.19971 7.99365H3.05469L3.31201 8.01025L3.51123 8.04346L3.70215 8.09326L3.90137 8.16797L4.12549 8.27588L4.2832 8.37549L4.39941 8.4585L4.54053 8.57471L4.73145 8.76562L4.80615 8.85693L4.91406 9.00635L5.01367 9.17236L5.07178 9.28027L5.10498 9.26367L5.16309 9.19727L5.2627 9.09766L5.3291 9.03955L5.41211 8.96484L5.50342 8.89014L5.61963 8.79883L5.73584 8.71582L5.91016 8.59961L6.09277 8.4917L6.3335 8.36719L6.56592 8.26758L6.82324 8.17627L7.06396 8.10986L7.29639 8.06006L7.50391 8.02686L7.65332 8.01025L7.98535 7.99365H9.01465L9.33008 8.01025L9.5542 8.03516L9.79492 8.07666L10.0605 8.14307L10.2681 8.20947L10.4507 8.27588L10.6748 8.37549L10.8076 8.44189L10.9653 8.5249L11.1396 8.63281L11.2974 8.74072L11.397 8.81543L11.5049 8.89844L11.6294 9.00635L11.6543 9.02295V9.03955L11.6875 9.05615L11.8037 9.17236L11.8701 9.23047L11.9116 9.28027H11.9282L12.0112 9.12256L12.0693 9.03125L12.1606 8.89844L12.2769 8.75732L12.3931 8.63281L12.501 8.5332L12.6421 8.42529L12.75 8.35059L12.9077 8.25928L13.0405 8.19287L13.1982 8.12646L13.3892 8.06836L13.5801 8.02686L13.771 8.00195L13.937 7.99365H14.792L15.0327 8.01025L15.2319 8.04346L15.4229 8.09326L15.6221 8.16797L15.8296 8.26758L15.9956 8.36719L16.1201 8.4585L16.2114 8.5332L16.2944 8.60791L16.3359 8.64111V8.65771H16.3525V8.67432H16.3691L16.4272 8.74072L16.502 8.82373L16.6182 8.98145L16.7012 9.11426L16.7676 9.23047L16.8589 9.43799L16.917 9.6123L16.9917 9.91113H17V14.0532L16.9834 14.0449L16.9336 14.2109L16.8672 14.3438L16.7925 14.4517L16.7012 14.5596L16.6016 14.6426L16.4854 14.7173L16.3608 14.7754L16.228 14.8169L16.145 14.8335L16.062 14.8418L12.9907 14.8501L12.9409 15.0742L12.8911 15.207L12.8081 15.3647L12.7251 15.481L12.6089 15.6055L12.4927 15.6968L12.3682 15.7715L12.2188 15.8379L12.1108 15.8711L11.9863 15.896L11.9033 15.9043H5.09668L4.95557 15.8877L4.79785 15.8462L4.66504 15.7881L4.53223 15.7134L4.42432 15.6304L4.39111 15.6055V15.5889L4.35791 15.5723L4.2666 15.4727L4.16699 15.3232L4.10059 15.1904L4.05908 15.0742L4.01758 14.8999V14.8418H0.896484L0.763672 14.8252L0.622559 14.7837L0.489746 14.7173L0.398438 14.6592L0.282227 14.5596L0.199219 14.4683L0.116211 14.3438L0.0581055 14.2192L0.00830078 14.0698L0 14.0366V9.95264L0.0249023 9.84473L0.0830078 9.604L0.141113 9.43799L0.21582 9.26367L0.31543 9.08105L0.381836 8.98145L0.448242 8.89014L0.581055 8.72412H0.597656L0.614258 8.69092L0.713867 8.59131L0.780273 8.5332L0.929688 8.41699L1.0542 8.33398L1.22852 8.23438L1.36963 8.16797L1.60205 8.08496L1.80957 8.03516L1.95898 8.01025L2.19971 7.99365ZM2.24951 8.99805L2.1084 9.00635L1.92578 9.03955L1.77637 9.08936L1.64355 9.15576L1.53564 9.22217L1.41943 9.31348L1.29492 9.43799L1.21191 9.5459L1.12891 9.68701L1.0625 9.84473L1.0293 9.96094L1.00439 10.1436L0.996094 10.4341V13.8374L1.0459 13.8457H3.99268L4.00928 13.8374V12.3765L4.01758 11.9697L4.03418 11.6709L4.05908 11.4385L4.10059 11.1895L4.17529 10.8906L4.2749 10.5918V10.1519L4.2417 9.94434L4.2002 9.81152L4.14209 9.67871L4.09229 9.5874L4.03418 9.50439L3.96777 9.42139L3.91797 9.36328L3.85156 9.30518L3.74365 9.22217L3.61914 9.14746L3.47803 9.08105L3.31201 9.03125L3.1543 9.00635L2.98828 8.99805H2.24951ZM8.00195 8.99805L7.70312 9.01465L7.479 9.04785L7.25488 9.09766L7.03906 9.16406L6.83154 9.24707L6.62402 9.34668L6.44971 9.44629L6.26709 9.5708L6.12598 9.67871L6.03467 9.76172L5.96826 9.81982L5.81055 9.97754L5.75244 10.0439L5.64453 10.1768L5.52832 10.3345L5.46191 10.4424L5.37891 10.5835L5.3125 10.708L5.21289 10.9404L5.12988 11.1895L5.08008 11.3887L5.03857 11.6377L5.02197 11.8286L5.01367 12.1108V14.6924L5.02197 14.792L5.06348 14.8584L5.11328 14.8916L5.13818 14.8999H11.8618L11.9199 14.8667L11.9614 14.8169L11.978 14.7754V11.8452L11.9531 11.5962L11.9116 11.3638L11.8452 11.1147L11.7622 10.8823L11.6709 10.6831L11.5796 10.5088L11.4717 10.3345L11.3638 10.1851L11.2476 10.0439L11.1479 9.93604L10.9736 9.76172L10.8823 9.68701L10.7661 9.5957L10.625 9.49609L10.4175 9.37158L10.2432 9.28027L10.0024 9.18066L9.80322 9.11426L9.5625 9.05615L9.35498 9.02295L9.16406 9.00635L8.96484 8.99805H8.00195ZM13.9702 8.99805L13.8291 9.00635L13.6465 9.03955L13.4971 9.08936L13.3643 9.15576L13.2563 9.22217L13.1401 9.31348L13.0156 9.43799L12.9243 9.5625L12.8496 9.68701L12.7832 9.85303L12.7417 10.0107L12.7251 10.1436L12.7168 10.293V10.5171L12.7334 10.625L12.8247 10.8989L12.8911 11.1646L12.9243 11.3389L12.9575 11.6128L12.9741 11.8618L12.9824 12.1274V13.8374L13.0239 13.8457L15.9956 13.8374V10.1519L15.9707 9.98584L15.9292 9.82812L15.8628 9.67871L15.7881 9.5459L15.6968 9.42969L15.6387 9.36328L15.5723 9.30518L15.4644 9.22217L15.3398 9.14746L15.1987 9.08105L15.0327 9.03125L14.875 9.00635L14.7173 8.99805H13.9702Z" fill="#111827"/>
<path d="M8.37549 1.0874H8.61621L8.83203 1.104L9.04785 1.13721L9.26367 1.18701L9.47119 1.25342L9.67871 1.33643L9.85303 1.41943L10.0356 1.52734L10.1353 1.59375L10.293 1.70996L10.4175 1.81787L10.5005 1.89258L10.6416 2.03369V2.05029H10.6582L10.7329 2.1416L10.8325 2.26611L10.9487 2.44043L11.0317 2.58154L11.1313 2.77246L11.1978 2.93018L11.2559 3.09619L11.314 3.29541L11.3638 3.55273L11.3887 3.77686V4.18359L11.3721 4.35791L11.3389 4.55713L11.2891 4.76465L11.1895 5.06348L11.0815 5.2959L10.9819 5.47852L10.8657 5.65283L10.7578 5.79395L10.6665 5.90186L10.5669 6.00977L10.4673 6.10938L10.4009 6.16748L10.2598 6.28369L10.1104 6.3916L9.94434 6.49121L9.74512 6.59912L9.5293 6.69043L9.33008 6.75684L9.09766 6.81494L8.84863 6.85645L8.66602 6.87305H8.31738L8.06836 6.84814L7.85254 6.80664L7.61182 6.74023L7.4292 6.67383L7.22168 6.58252L7.03906 6.48291L6.88135 6.3833L6.75684 6.29199L6.64062 6.20068L6.53271 6.10107L6.43311 6.00977L6.3418 5.91016L6.26709 5.82715L6.15918 5.68604L6.07617 5.56982L5.97656 5.40381L5.87695 5.21289L5.79395 5.02197L5.71094 4.77295L5.65283 4.52393L5.61963 4.30811L5.60303 4.10889V3.86816L5.61963 3.66064L5.66113 3.39502L5.71094 3.1958L5.80225 2.92188L5.89355 2.71436L5.96826 2.58154L6.01807 2.49023L6.12598 2.32422L6.22559 2.19141L6.31689 2.0835L6.46631 1.91748L6.53271 1.85938L6.63232 1.76807L6.74854 1.67676L6.87305 1.58545L7.03076 1.48584L7.21338 1.38623L7.37109 1.31152L7.57031 1.23682L7.79443 1.17041L8.05176 1.12061L8.25098 1.0957L8.37549 1.0874ZM8.32568 2.1001L8.10156 2.1333L7.91895 2.18311L7.76123 2.24121L7.60352 2.31592L7.4541 2.40723L7.32129 2.50684L7.15527 2.65625L7.04736 2.77246L6.93115 2.93018L6.86475 3.03809L6.77344 3.2124L6.69873 3.41162L6.64893 3.60254L6.62402 3.76025L6.61572 3.84326V4.13379L6.64062 4.32471L6.69043 4.53223L6.75684 4.71484L6.84814 4.90576L6.93945 5.05518L7.07227 5.22119L7.17188 5.3291L7.27979 5.42871L7.4458 5.55322L7.57861 5.63623L7.76953 5.72754L7.93555 5.78564L8.09326 5.82715L8.29248 5.86035L8.35889 5.86865H8.64111L8.87354 5.83545L9.06445 5.78564L9.22217 5.72754L9.42969 5.62793L9.5874 5.52832L9.70361 5.43701L9.80322 5.3457L9.86133 5.2959L9.91943 5.22949L10.0024 5.12988L10.0938 4.99707L10.1934 4.82275L10.2681 4.64844L10.3179 4.49902L10.3594 4.31641L10.3843 4.12549V3.85156L10.3511 3.61084L10.3096 3.44482L10.2349 3.2373L10.1519 3.06299L10.0522 2.90527L9.95264 2.77246L9.83643 2.64795L9.74512 2.55664L9.63721 2.47363L9.5293 2.39893L9.40479 2.32422L9.27197 2.25781L9.10596 2.19141L8.96484 2.1499L8.79883 2.1167L8.66602 2.1001H8.32568Z" fill="#111827"/>
<path d="M14.269 3.2124H14.4185L14.6094 3.229L14.7754 3.26221L14.9165 3.30371L15.0908 3.37012L15.2817 3.46973L15.3813 3.53613L15.481 3.61084L15.5972 3.71045L15.7134 3.82666L15.8047 3.94287L15.8877 4.05908L15.979 4.2168L16.0537 4.38281L16.1201 4.59033L16.1616 4.79785L16.1699 4.88086V5.20459L16.145 5.37891L16.1035 5.56152L16.0454 5.72754L15.9956 5.83545L15.9375 5.95166L15.8545 6.08447L15.7466 6.22559L15.6304 6.3501L15.5723 6.4082L15.481 6.48291L15.3564 6.57422L15.1987 6.66553L15.041 6.74023L14.8169 6.81494L14.6177 6.85645L14.4683 6.87305H14.1943L14.0034 6.84814L13.8042 6.79834L13.6465 6.74023L13.4556 6.64893L13.2979 6.54932L13.1899 6.46631L13.1069 6.3916L13.0654 6.3584V6.3418L13.0322 6.3252V6.30859H13.0156L12.9575 6.24219L12.8745 6.14258L12.7749 5.99316L12.7002 5.86035L12.6338 5.71094L12.5674 5.51172L12.5259 5.3042L12.5093 5.12988V4.98047L12.5259 4.79785L12.5508 4.65674L12.6006 4.47412L12.6587 4.32471L12.7417 4.15039L12.833 4.00928L12.9575 3.84326H12.9741L12.9907 3.81006L13.0488 3.74365L13.1152 3.68555L13.2314 3.58594L13.3809 3.48633L13.4971 3.41992L13.6714 3.33691L13.8457 3.27881L14.0366 3.2373L14.1528 3.2207L14.269 3.2124ZM14.3354 4.2168L14.1777 4.2334L14.0781 4.2583L13.9453 4.31641L13.8374 4.39111L13.7378 4.48242L13.6548 4.58203L13.5801 4.72314L13.5469 4.81445L13.522 4.95557V5.14648L13.5552 5.2959L13.5967 5.40381L13.6465 5.49512L13.7295 5.60303L13.7959 5.66943L13.9121 5.75244L14.0449 5.81885L14.2026 5.86035L14.2524 5.86865H14.4268L14.5928 5.83545L14.7256 5.77734L14.8335 5.71094L14.9414 5.61963L15.0327 5.50342L15.0908 5.40381L15.1406 5.271L15.1655 5.13818V4.96387L15.1406 4.83105L15.0991 4.70654L15.041 4.59863L14.9746 4.50732L14.9248 4.44922L14.8418 4.38281L14.709 4.2998L14.5762 4.25L14.4517 4.2251L14.3354 4.2168Z" fill="#111827"/>
<path d="M2.58154 3.2124H2.73096L2.92188 3.229L3.08789 3.26221L3.229 3.30371L3.40332 3.37012L3.59424 3.46973L3.69385 3.53613L3.79346 3.61084L3.90967 3.71045L4.02588 3.82666L4.11719 3.94287L4.2002 4.05908L4.2915 4.2168L4.36621 4.38281L4.42432 4.56543L4.46582 4.75635L4.48242 4.88916V5.20459L4.45752 5.38721L4.40771 5.58643L4.34131 5.76904L4.2749 5.90186L4.2085 6.01807L4.14209 6.11768L4.05908 6.22559L3.94287 6.3501L3.88477 6.4082L3.79346 6.48291L3.66895 6.57422L3.51123 6.66553L3.35352 6.74023L3.12939 6.81494L2.93018 6.85645L2.78076 6.87305H2.50684L2.31592 6.84814L2.1167 6.79834L1.95898 6.74023L1.76807 6.64893L1.61035 6.54932L1.50244 6.46631L1.41943 6.3916L1.37793 6.3584V6.3418L1.34473 6.3252V6.30859H1.32812L1.27002 6.24219L1.18701 6.14258L1.0874 5.99316L1.00439 5.84375L0.921387 5.64453L0.871582 5.47021L0.838379 5.3042L0.821777 5.12988V4.98047L0.838379 4.79785L0.879883 4.59033L0.929688 4.42432L1.00439 4.25L1.0791 4.10889L1.14551 4.00928L1.27002 3.84326H1.28662L1.30322 3.81006L1.36133 3.74365L1.42773 3.68555L1.54395 3.58594L1.69336 3.48633L1.80957 3.41992L1.98389 3.33691L2.1582 3.27881L2.34912 3.2373L2.46533 3.2207L2.58154 3.2124ZM2.64795 4.2168L2.49023 4.2334L2.39062 4.2583L2.25781 4.31641L2.1499 4.39111L2.05029 4.48242L1.96729 4.58203L1.89258 4.72314L1.85938 4.81445L1.83447 4.95557V5.14648L1.86768 5.2959L1.90918 5.40381L1.95898 5.49512L2.04199 5.60303L2.1084 5.66943L2.22461 5.75244L2.35742 5.81885L2.51514 5.86035L2.56494 5.86865H2.73926L2.90527 5.83545L3.03809 5.77734L3.146 5.71094L3.25391 5.61963L3.34521 5.50342L3.40332 5.40381L3.45312 5.271L3.47803 5.13818V4.96387L3.45312 4.83105L3.41162 4.70654L3.35352 4.59863L3.28711 4.50732L3.1792 4.39941L3.06299 4.32471L2.96338 4.2749L2.85547 4.2417L2.76416 4.2251L2.64795 4.2168Z" fill="#111827"/>
</svg>
