<svg width="17" height="17" viewBox="0 0 17 17" fill="currentColor" xmlns="http://www.w3.org/2000/svg">
<g clip-path="url(#clip0_1397_164)">
<path d="M1.1123 7.08057H6.66553L6.83154 7.10547L6.97266 7.14697L7.12207 7.21338L7.23828 7.27979L7.34619 7.36279L7.4292 7.4375L7.4873 7.49561L7.57031 7.60352L7.63672 7.71143L7.70312 7.84424L7.76123 8.01855L7.78613 8.15137L7.79443 8.22607V15.8462L7.76953 16.0288L7.71973 16.1948L7.66162 16.3276L7.58691 16.4521L7.51221 16.5518L7.4209 16.6514L7.32959 16.7344L7.22168 16.8091L7.07227 16.8921L6.88965 16.9585L6.74023 17H1.0625L0.821777 16.9336L0.688965 16.8755L0.556152 16.8008L0.448242 16.7178L0.348633 16.6265L0.257324 16.5269L0.199219 16.4438L0.116211 16.3027L0.0581055 16.1616L0 15.9541V8.11816L0.0581055 7.91895L0.124512 7.76123L0.190918 7.64502L0.265625 7.54541L0.340332 7.4624L0.348633 7.4458H0.365234V7.4292L0.431641 7.37109L0.539551 7.28809L0.680664 7.20508L0.838379 7.13867L0.996094 7.09717L1.1123 7.08057ZM2.1665 8.14307L1.18701 8.15137L1.12061 8.19287L1.0874 8.23438L1.0708 8.27588L1.0625 8.65771V15.7217L1.0791 15.8296L1.1123 15.8794L1.15381 15.9126L1.19531 15.9292H6.59912L6.66553 15.8877L6.70703 15.8379L6.72363 15.7798V8.29248L6.69043 8.20947L6.62402 8.15967L6.59912 8.15137L5.84375 8.14307H2.1665Z" fill="#111827"/>
<path d="M10.2432 0H15.9956L16.0205 0.0166016L16.1616 0.0581055L16.2861 0.10791L16.4106 0.174316L16.5269 0.257324L16.6431 0.356934L16.7261 0.448242L16.8257 0.589355L16.9004 0.730469L16.9585 0.896484L16.9834 0.987793H17V8.91504H16.9834L16.9502 9.04785L16.8838 9.21387L16.8257 9.32178L16.7593 9.42139L16.668 9.5293L16.585 9.6123L16.4771 9.69531L16.3691 9.76172L16.2363 9.82812L16.0869 9.87793L15.9126 9.91113L15.8296 9.91943H10.376L10.2266 9.90283L10.0854 9.86963L9.91943 9.80322L9.77832 9.72852L9.67871 9.65381L9.5957 9.5791L9.47949 9.46289L9.38818 9.33008L9.31348 9.19727L9.25537 9.04785L9.21387 8.86523L9.20557 8.79883L9.19727 8.4834V1.26172L9.20557 1.104L9.24707 0.896484L9.30518 0.73877L9.37158 0.605957L9.43799 0.506348L9.5293 0.398438L9.5791 0.340332L9.67041 0.265625L9.77002 0.190918L9.90283 0.116211L10.0439 0.0581055L10.1768 0.0166016L10.2432 0ZM10.4507 1.0625L10.3843 1.0708L10.3179 1.12061L10.293 1.15381L10.2764 1.20361V8.71582L10.3013 8.78223L10.3511 8.82373L10.3843 8.84033L10.4341 8.84863H15.7881L15.8545 8.82373L15.9126 8.75732L15.9292 8.71582V1.19531L15.896 1.12891L15.8462 1.0874L15.813 1.0708L15.7217 1.0625H10.4507Z" fill="#111827"/>
<path d="M10.3179 11.3306H15.8794L16.0454 11.3555L16.1865 11.397L16.311 11.4551L16.4189 11.5132L16.5352 11.5962L16.6348 11.6875L16.7095 11.7622L16.8008 11.8867L16.8672 12.0029L16.917 12.1108L16.9751 12.2852L16.9917 12.3184H17V15.9956H16.9834L16.9419 16.1533L16.8755 16.311L16.8174 16.4189L16.7593 16.502L16.6846 16.5933L16.6514 16.6348L16.585 16.6929L16.4937 16.7676L16.3857 16.834L16.2612 16.9004L16.1284 16.9502L15.9458 17H10.2183L10.21 16.9834L10.0356 16.9336L9.89453 16.8755L9.76172 16.8008L9.65381 16.7178L9.5459 16.6182L9.48779 16.5518L9.41309 16.4521L9.33838 16.3276L9.27197 16.1782L9.22217 15.9956L9.20557 15.8794L9.19727 15.5557V12.5923L9.20557 12.4429L9.23877 12.2603L9.28857 12.1108L9.36328 11.9531L9.47119 11.7954L9.5625 11.6958L9.63721 11.6211L9.76172 11.5298L9.88623 11.4551L10.0273 11.397L10.127 11.3638L10.2515 11.3389L10.3179 11.3306ZM11.2227 12.3931L10.4009 12.4014L10.3345 12.4346L10.293 12.4844L10.2764 12.5342V15.8047L10.3096 15.8711L10.3594 15.9126L10.4009 15.9292H15.8047L15.8545 15.9043L15.896 15.8628L15.9292 15.7964V12.5342L15.9043 12.4761L15.8628 12.4263L15.8047 12.4014L14.7837 12.3931H11.2227Z" fill="#111827"/>
<path d="M1.0376 0H6.74854L6.94775 0.0581055L7.08057 0.10791L7.22998 0.190918L7.33789 0.273926L7.4209 0.348633L7.50391 0.431641L7.61182 0.581055L7.69482 0.73877L7.75293 0.904785L7.78613 1.0625L7.79443 1.14551V4.51562L7.76953 4.68994L7.71973 4.86426L7.62842 5.05518L7.56201 5.15479L7.49561 5.23779L7.4043 5.3374L7.30469 5.42041L7.18848 5.49512L7.04736 5.56982L6.87305 5.62793L6.70703 5.66113L6.61572 5.66943H1.16211L1.021 5.65283L0.879883 5.61963L0.74707 5.56982L0.614258 5.50342L0.514648 5.43701L0.431641 5.37061L0.332031 5.2793L0.273926 5.21289L0.190918 5.09668L0.124512 4.98047L0.0664062 4.84766L0.0166016 4.68164L0 4.63184V1.0293L0.0166016 0.987793L0.0664062 0.813477L0.132812 0.664062L0.21582 0.522949L0.290527 0.431641L0.365234 0.348633L0.456543 0.265625L0.589355 0.174316L0.672363 0.124512L0.879883 0.0415039L1.0376 0ZM1.24512 1.0625L1.16211 1.0791L1.0957 1.13721L1.0708 1.19531L1.0625 1.53564V4.39941L1.0791 4.49902L1.1123 4.54883L1.13721 4.57373L1.17871 4.59033L1.22852 4.59863H6.58252L6.64893 4.57373L6.70703 4.50732L6.72363 4.44922V1.20361L6.68213 1.12061L6.64062 1.0874L6.60742 1.0708L6.54932 1.0625H1.24512Z" fill="#111827"/>
</g>
<defs>
<clipPath id="clip0_1397_164">
<rect width="17" height="17" fill="white"/>
</clipPath>
</defs>
</svg>
