<svg width="17" height="17" viewBox="0 0 17 17" fill="currentColor" xmlns="http://www.w3.org/2000/svg">
<g clip-path="url(#clip0_1397_72)">
<path d="M10.293 0H15.9292L16.145 0.0581055L16.2778 0.10791L16.4023 0.174316L16.5435 0.273926L16.668 0.390137L16.7593 0.498047L16.8423 0.630859L16.917 0.788574L16.9668 0.946289L17 1.0957V8.81543L16.9502 9.02295L16.8921 9.18896L16.8257 9.31348L16.7593 9.41309L16.6846 9.50439L16.5684 9.62061L16.4604 9.70361L16.3276 9.77832L16.2197 9.82812L16.0952 9.86963L15.9292 9.90283L15.8628 9.91113L15.5889 9.91943L10.3179 9.91113L10.127 9.87793L9.96094 9.81982L9.78662 9.72852L9.69531 9.66211L9.604 9.5874L9.5127 9.49609L9.42969 9.38818L9.36328 9.28027L9.29688 9.14746L9.24707 8.99805L9.21387 8.83203L9.20557 8.72412V1.17041L9.22217 1.0293L9.26367 0.85498L9.31348 0.730469L9.39648 0.572754L9.46289 0.481445L9.5625 0.365234L9.66211 0.273926L9.77832 0.190918L9.91113 0.116211L10.0356 0.0664062L10.1685 0.0249023L10.293 0Z" fill="currentColor"/>
<path d="M1.22021 7.08057H6.58252L6.76514 7.09717L6.93945 7.13867L7.09717 7.20508L7.22998 7.27979L7.33789 7.36279L7.4209 7.4375L7.49561 7.51221L7.59521 7.64502L7.66992 7.77783L7.73633 7.94385L7.76953 8.07666L7.78613 8.18457L7.79443 15.5972L7.78613 15.896L7.74463 16.1035L7.68652 16.2612L7.62012 16.394L7.52051 16.5352L7.4292 16.6348L7.36279 16.7012L7.23828 16.7925L7.09717 16.8755L6.92285 16.9419L6.74023 16.9917L6.69873 17H1.0957L0.863281 16.9419L0.730469 16.8921L0.589355 16.8174L0.473145 16.7344L0.390137 16.6597L0.348633 16.6265L0.290527 16.5601L0.20752 16.4521L0.124512 16.311L0.0581055 16.145L0.00830078 15.9624L0 15.9209V8.15137L0.0581055 7.93555L0.124512 7.76953L0.182617 7.66992L0.257324 7.56201L0.356934 7.4458L0.448242 7.36279L0.572754 7.27148L0.722168 7.18848L0.879883 7.13037L1.0293 7.09717L1.22021 7.08057Z" fill="currentColor"/>
<path d="M10.4258 11.3306H15.7964L15.9707 11.3472L16.145 11.3887L16.2695 11.4385L16.4272 11.5215L16.5269 11.5962L16.6099 11.6709L16.6597 11.7124L16.7344 11.8037L16.8008 11.895L16.8755 12.0278L16.9419 12.1938L16.9834 12.3433L17 12.4263V15.9043L16.9419 16.1367L16.8921 16.2695L16.8174 16.4106L16.7593 16.4937L16.6846 16.585L16.6099 16.668L16.4937 16.7593L16.3774 16.834L16.2446 16.9004L16.1367 16.9419L15.9458 16.9917L15.9043 17H10.3096L10.0688 16.9419L9.90283 16.8755L9.77002 16.8008L9.66211 16.7178L9.5791 16.6431L9.50439 16.5684L9.42139 16.4604L9.34668 16.3359L9.28027 16.1865L9.23047 16.0122L9.21387 15.9126L9.20557 15.8047V12.501L9.22217 12.3599L9.25537 12.2188L9.31348 12.061L9.38818 11.9199L9.47119 11.8037L9.5625 11.7041L9.65381 11.6128L9.79492 11.5132L9.96924 11.4219L10.1187 11.3721L10.293 11.3389L10.4258 11.3306Z" fill="currentColor"/>
<path d="M1.0708 0H6.71533L6.90625 0.0498047L7.07227 0.10791L7.22168 0.190918L7.35449 0.290527L7.4458 0.373535L7.50391 0.439941L7.59521 0.564453L7.66992 0.697266L7.73633 0.863281L7.76953 0.996094L7.78613 1.104L7.79443 4.25L7.78613 4.55713L7.75293 4.73975L7.69482 4.91406L7.60352 5.08838L7.51221 5.21289L7.4209 5.3125L7.32129 5.40381L7.18018 5.49512L7.04736 5.56152L6.91455 5.61133L6.77344 5.64453L6.64893 5.66113L6.3833 5.66943L1.104 5.66113L0.921387 5.62793L0.755371 5.56982L0.622559 5.50342L0.53125 5.44531L0.415039 5.354L0.298828 5.23779L0.21582 5.12988L0.141113 5.00537L0.0830078 4.88086L0.0332031 4.72314L0 4.58203V1.0708L0.0664062 0.821777L0.132812 0.672363L0.21582 0.53125L0.32373 0.398438L0.42334 0.298828L0.556152 0.199219L0.688965 0.124512L0.780273 0.0830078L0.929688 0.0332031L1.0708 0Z" fill="currentColor"/>
</g>
<defs>
<clipPath id="clip0_1397_72">
<rect width="17" height="17" fill="currentColor"/>
</clipPath>
</defs>
</svg>
