<svg width="15" height="15" viewBox="0 0 15 15" fill="currentColor" xmlns="http://www.w3.org/2000/svg">
<g clip-path="url(#clip0_1397_95)">
<path d="M1.96289 0H13.0884L13.1104 0.0146484L13.374 0.0732422L13.5938 0.146484L13.7402 0.212402L13.9087 0.300293L14.0625 0.402832L14.1577 0.476074L14.2383 0.541992L14.3481 0.644531L14.4214 0.717773L14.4873 0.79834L14.5605 0.88623L14.6265 0.981445L14.7144 1.12061L14.7949 1.27441L14.8535 1.41357L14.9268 1.6333L14.9707 1.81641L14.9854 1.89697H15V13.0737L14.9854 13.0884L14.9487 13.2715L14.9048 13.4399L14.8535 13.5864L14.7949 13.7256L14.7217 13.8647L14.6558 13.9746L14.5898 14.0698L14.502 14.187L14.4214 14.2749L14.3701 14.3335L14.2896 14.4141L14.209 14.48L14.1211 14.5532L13.9819 14.6484L13.8721 14.7144L13.7036 14.8022L13.5645 14.8608L13.3594 14.9268L13.0957 14.9854L13.0225 15H1.93359L1.91162 14.9854L1.6626 14.9341L1.49414 14.8828L1.29639 14.8022L1.13525 14.7217L0.959473 14.6118L0.864258 14.5386L0.783691 14.4727L0.695801 14.3921L0.637207 14.3408L0.556641 14.2529L0.46875 14.1504L0.373535 14.0186L0.27832 13.8647L0.197754 13.7109L0.117188 13.5132L0.0512695 13.2861L0.00732422 13.0591L0 13.0371V1.94824L0.0146484 1.9043L0.0512695 1.71387L0.102539 1.53076L0.175781 1.33301L0.270996 1.14258L0.351562 1.01074L0.424805 0.908203L0.498047 0.812988L0.585938 0.710449L0.74707 0.549316L0.827637 0.483398L0.944824 0.395508L1.06934 0.314941L1.18652 0.249023L1.30371 0.19043L1.44287 0.131836L1.59668 0.0805664L1.77246 0.0366211L1.96289 0ZM2.23389 0.9375L2.02881 0.952148L1.86035 0.98877L1.72119 1.04004L1.604 1.09863L1.50879 1.15723L1.3916 1.24512L1.24512 1.3916L1.15723 1.50879L1.08398 1.6333L1.02539 1.76514L0.981445 1.89697L0.959473 1.99951L0.944824 2.12402L0.9375 2.41699V12.7075L0.944824 12.8833L0.966797 13.0444L1.01807 13.2202L1.08398 13.3667L1.14258 13.4692L1.23047 13.5864L1.29639 13.6597L1.38428 13.7476L1.47949 13.8208L1.59668 13.894L1.71387 13.9526L1.85303 14.0039L1.97754 14.0332L2.15332 14.0552H12.8467L13.0225 14.0332L13.1909 13.9893L13.3447 13.9233L13.4619 13.8574L13.5645 13.7842L13.667 13.6963L13.7256 13.6377L13.7915 13.5571L13.8647 13.4546L13.9087 13.3813L13.9746 13.2349L14.0112 13.1177L14.0405 12.9858L14.0552 12.8613V2.15332L14.0332 1.97754L14.0039 1.85303L13.9526 1.71387L13.894 1.59668L13.8281 1.48682L13.7476 1.38428L13.667 1.29639L13.5938 1.23047L13.4692 1.14258L13.3521 1.07666L13.2422 1.02539L13.1104 0.981445L12.9639 0.952148L12.8906 0.944824L12.7148 0.9375H2.23389Z" fill="black"/>
<path d="M3.04688 1.82373H5.81543L5.96191 1.83838L6.14502 1.88232L6.2915 1.94092L6.43066 2.01416L6.5332 2.0874L6.60645 2.146L6.69434 2.22656V2.24121H6.70898L6.7749 2.32178L6.85547 2.43164L6.92871 2.56348L6.99463 2.72461L7.03857 2.90039L7.05322 3.00293L7.06055 3.19336V11.0889L7.05322 11.2573L7.02393 11.4258L6.97266 11.5942L6.91406 11.7261L6.8335 11.8579L6.74561 11.9751L6.65771 12.0703L6.59912 12.1216L6.49658 12.2021L6.3501 12.29L6.21826 12.3486L6.0791 12.3926L5.93994 12.4219L5.80078 12.4365H3.06885L2.88574 12.4146L2.73926 12.3779L2.57812 12.312L2.46826 12.2534L2.3584 12.1802L2.27783 12.1143L2.21191 12.0557V12.041H2.19727L2.146 11.9824L2.07275 11.8945L1.98486 11.7554L1.92627 11.6382L1.88232 11.521L1.83838 11.3379L1.82373 11.2134V3.03223L1.8457 2.87842L1.88965 2.71729L1.94824 2.5708L2.02148 2.43896L2.09473 2.33643L2.13867 2.27783H2.15332L2.16797 2.24854L2.27051 2.146L2.39502 2.05078L2.52686 1.97021L2.67334 1.9043L2.7832 1.86768L2.96631 1.83105L3.04688 1.82373ZM3.10547 2.76855L3.00293 2.79053L2.93701 2.82715L2.86377 2.89307L2.8125 2.95898L2.7832 3.0249L2.76855 3.12012V11.1548L2.7832 11.2354L2.83447 11.3379L2.88574 11.3965L2.96631 11.4478L3.03223 11.4771L3.09814 11.4917L3.55225 11.499H5.08301L5.77148 11.4917L5.87402 11.4697L5.95459 11.4258L6.02783 11.3599L6.07178 11.2939L6.10107 11.2207L6.1084 11.1841L6.11572 11.0303L6.1084 3.07617L6.0791 2.98096L6.03516 2.90771L5.96924 2.8418L5.896 2.79785L5.83008 2.77588L5.77881 2.76855H3.10547Z" fill="black"/>
<path d="M9.1626 1.82373H11.9312L12.1216 1.8457L12.3047 1.89697L12.4365 1.95557L12.5464 2.01416L12.6709 2.10205L12.7441 2.16064V2.17529L12.7734 2.18994L12.832 2.24854L12.8979 2.3291L12.9712 2.43164L13.0371 2.54883L13.0957 2.68066L13.1396 2.82715L13.1689 2.98828L13.1763 3.0835V7.68311L13.1616 7.82227L13.1323 7.96875L13.0884 8.10059L13.0371 8.21777L12.9932 8.29834L12.9346 8.38623L12.8613 8.48145L12.7734 8.57666L12.7002 8.64258L12.5757 8.73047L12.4365 8.81104L12.29 8.86963L12.1582 8.90625L12.0483 8.92822L11.8799 8.94287H9.24316L9.06738 8.92822L8.9209 8.89893L8.74512 8.84033L8.59863 8.76709L8.48877 8.69385L8.37158 8.59863L8.26172 8.48877L8.1665 8.36426L8.10059 8.25439L8.04199 8.13721L7.99072 7.99805L7.9541 7.82959L7.93945 7.68311V3.0542L7.96143 2.89307L7.99805 2.74658L8.04932 2.60742L8.12988 2.45361L8.21777 2.3291L8.29834 2.23389L8.37158 2.16064L8.45215 2.09473L8.54736 2.02881L8.67188 1.95557L8.81104 1.89697L8.95752 1.85303L9.08936 1.83105L9.1626 1.82373ZM9.22119 2.76855L9.11865 2.79053L9.03076 2.8418L8.96484 2.90771L8.9209 2.98096L8.89893 3.03955L8.8916 3.07617L8.88428 3.22998V7.62451L8.89893 7.72705L8.92822 7.80029L8.97217 7.86621L9.02344 7.91748L9.09668 7.96143L9.18457 7.99072L9.23584 7.99805L10.144 8.00537H10.8838L11.8799 7.99805L11.9824 7.97607L12.0703 7.93213L12.1436 7.86621L12.1875 7.80762L12.2168 7.73438L12.2314 7.63184V3.14209L12.2241 3.06152L12.1948 2.97363L12.1289 2.87842L12.0557 2.81982L11.9751 2.7832L11.8945 2.76855H9.22119Z" fill="black"/>
</g>
<defs>
<clipPath id="clip0_1397_95">
<rect width="15" height="15" fill="white"/>
</clipPath>
</defs>
</svg>
