<svg width="15" height="15" viewBox="0 0 15 15" fill="currentColor" xmlns="http://www.w3.org/2000/svg">
<g clip-path="url(#clip0_1397_406)">
<path d="M1.67725 0H13.3228L13.5425 0.0439453L13.7036 0.0878906L13.8501 0.13916L14.0039 0.212402L14.1284 0.285645L14.2529 0.373535L14.3335 0.439453L14.4067 0.505371L14.5312 0.629883L14.5972 0.710449L14.6777 0.820312L14.7583 0.952148L14.8389 1.10596L14.9048 1.27441L14.9414 1.39893L14.9854 1.61133L15 1.69189V13.3008L14.9487 13.5645L14.8975 13.7476L14.8169 13.938L14.751 14.0625L14.6704 14.187L14.5825 14.3042L14.4946 14.4067L14.3921 14.5093L14.3335 14.5605L14.2017 14.6631L14.0479 14.7583L13.938 14.8169L13.7988 14.8755L13.623 14.9341L13.396 14.9854L13.3008 15H1.69922L1.43555 14.9487L1.28174 14.9048L1.12793 14.8462L0.98877 14.7803L0.842285 14.6924L0.703125 14.5898L0.593262 14.4946L0.476074 14.3774L0.410156 14.2969L0.314941 14.1724L0.227051 14.0259L0.168457 13.9087L0.109863 13.7695L0.0585938 13.6084L0.0146484 13.4033L0 13.3228V1.6626L0.0585938 1.3916L0.102539 1.24512L0.183105 1.05469L0.249023 0.930176L0.314941 0.827637L0.388184 0.725098L0.476074 0.622559L0.527344 0.571289L0.571289 0.52002L0.629883 0.46875L0.695801 0.410156L0.834961 0.307617L0.944824 0.241699L1.09863 0.161133L1.26709 0.0952148L1.4502 0.0439453L1.67725 0ZM2.7832 1.94824L2.66602 1.96289L2.5415 1.99951L2.42432 2.05078L2.32178 2.1167L2.24121 2.18262L2.16064 2.26318L2.10205 2.34375L2.03613 2.45361L1.98486 2.58545L1.95557 2.70996L1.94824 2.79785V11.3892L1.96289 11.5356L2.00684 11.6895L2.06543 11.8066L2.1167 11.8872L2.17529 11.9604L2.26318 12.0483L2.36572 12.1216L2.43896 12.1655L2.56348 12.2168L2.66602 12.2461L2.76855 12.2607H5.69092L5.80078 12.2461L5.95459 12.2021L6.07178 12.1436L6.15234 12.0923L6.23291 12.0264L6.31348 11.9458L6.38672 11.8433L6.43066 11.77L6.47461 11.6602L6.50391 11.5649L6.51855 11.4771L6.52588 11.3745V2.85645L6.51855 2.73193L6.48926 2.59277L6.44531 2.47559L6.37939 2.35107L6.29883 2.24854L6.21094 2.16064L6.1084 2.0874L6.02051 2.03613L5.91064 1.99219L5.80078 1.96289L5.68359 1.94824H2.7832ZM9.30908 1.94824L9.19189 1.96289L9.08203 1.99219L8.96484 2.04346L8.85498 2.10938L8.77441 2.17529L8.68652 2.26318L8.61328 2.36572L8.56201 2.45361L8.50342 2.60742L8.48145 2.70996L8.47412 2.79053V7.66846L8.49609 7.82959L8.53271 7.93945L8.59131 8.06396L8.6792 8.18848L8.73047 8.24707L8.78906 8.29834L8.89893 8.37891L9.01611 8.4375L9.1333 8.48145L9.23584 8.50342L9.30176 8.51074H12.2168L12.3267 8.49609L12.4585 8.45947L12.5464 8.42285L12.6562 8.35693L12.7222 8.30566L12.7954 8.23975L12.8687 8.15918L12.9346 8.05664L12.9932 7.93213L13.0298 7.80762L13.0444 7.71973L13.0518 7.60986V2.87842L13.0444 2.73926L13.0151 2.59277L12.9712 2.47559L12.9126 2.36572L12.8467 2.27783L12.7808 2.20459L12.7075 2.13867L12.5977 2.06543L12.4805 2.00684L12.3267 1.96289L12.2021 1.94824H9.30908Z" fill="#111827"/>
</g>
<defs>
<clipPath id="clip0_1397_406">
<rect width="15" height="15" fill="white"/>
</clipPath>
</defs>
</svg>
