<svg width="18" height="17" viewBox="0 0 18 17" fill="currentColor" xmlns="http://www.w3.org/2000/svg">
<path d="M5.88721 1.41113H12.1211L12.4531 1.42773L12.7686 1.46094L13.0342 1.50244L13.2915 1.56055L13.5488 1.63525L13.7397 1.70166L13.939 1.78467L14.1548 1.88428L14.3457 1.99219L14.5117 2.1001L14.6279 2.18311L14.7026 2.24121L14.7939 2.31592L14.877 2.39062L14.9434 2.44873L15.0928 2.59814L15.1509 2.66455L15.2422 2.77246L15.3418 2.90527L15.4414 3.05469L15.5244 3.1875L15.6323 3.38672L15.707 3.54443L15.7983 3.76855L15.8896 4.04248L15.9478 4.2666L15.9893 4.44922L16.0391 4.75635L16.064 4.97217L16.0806 5.22119L16.0889 5.47852V11.5464L16.0723 11.9365L16.0391 12.252L15.9893 12.5508L15.9229 12.8413L15.8232 13.165L15.7319 13.3975L15.6323 13.6133L15.5576 13.7544L15.458 13.9204L15.3916 14.02L15.3086 14.1362L15.2256 14.2441L15.1509 14.3271L15.0845 14.4102L14.9185 14.5762L14.8521 14.6343L14.7441 14.7256L14.6362 14.8086L14.4951 14.9082L14.3208 15.0161L14.1714 15.0991L13.9141 15.2236L13.6982 15.3066L13.4492 15.3896L13.1172 15.4727L12.8931 15.5142L12.5776 15.5557L12.2539 15.5806L11.9468 15.5889L5.72949 15.5806L5.39746 15.5557L5.09863 15.5142L4.84131 15.4644L4.60889 15.4062L4.39307 15.3398L4.21045 15.2734L4.05273 15.207L3.92822 15.1489L3.74561 15.0576L3.57959 14.958L3.42188 14.8501L3.31396 14.7671L3.23096 14.7007L3.11475 14.6011L2.85742 14.3438L2.78271 14.2524L2.68311 14.1279L2.5752 13.9702L2.47559 13.8125L2.36768 13.6133L2.27637 13.4224L2.17676 13.165L2.11035 12.9658L2.04395 12.7085L1.99414 12.4761L1.94434 12.1274L1.91943 11.8535L1.91113 11.6875L1.90283 11.3638V5.59473L1.91943 5.12158L1.95264 4.78955L2.00244 4.48242L2.05225 4.25L2.10205 4.05908L2.20166 3.76025L2.27637 3.57764L2.36768 3.37842L2.46729 3.1958L2.5918 2.99658L2.6582 2.90527L2.75781 2.77246L2.77441 2.74756H2.79102L2.80762 2.71436L2.91553 2.58984L3.12305 2.38232H3.13965V2.36572L3.23096 2.29102L3.35547 2.19141L3.51318 2.0835L3.6377 2.00049L3.87842 1.86768L4.12744 1.75146L4.35156 1.66846L4.52588 1.61035L4.7832 1.54395L5.02393 1.49414L5.28955 1.45264L5.53027 1.42773L5.88721 1.41113ZM7.09082 4.69824L6.99951 4.72314L6.8999 4.77295L6.81689 4.83936L5.60498 6.05127V6.06787L5.53857 6.00977L5.41406 5.88525L5.33105 5.82715L5.23975 5.78564L5.14844 5.76074H4.97412L4.87451 5.78564L4.7583 5.84375L4.65039 5.94336L4.58398 6.04297L4.54248 6.15918L4.53418 6.20068V6.3667L4.55908 6.46631L4.60059 6.54932L4.65869 6.62402L4.7002 6.67383H4.7168L4.7334 6.70703L4.83301 6.80664H4.84961L4.85791 6.83154L4.92432 6.88965L5.10693 7.07227L5.13184 7.10547H5.14844L5.16504 7.13867H5.18164L5.19824 7.17188H5.21484V7.18848L5.29785 7.25488L5.41406 7.31299L5.54688 7.33789H5.64648L5.7627 7.31299L5.89551 7.24658L5.99512 7.15527L7.59717 5.55322L7.65527 5.46191L7.69678 5.354L7.71338 5.20459L7.69678 5.08008L7.64697 4.95557L7.58057 4.86426L7.49756 4.78955L7.36475 4.72314L7.27344 4.69824H7.09082ZM9.20752 5.75244L9.07471 5.76904L8.9751 5.81055L8.89209 5.86865L8.83398 5.91846L8.76758 6.00977L8.72607 6.09277L8.70117 6.16748L8.69287 6.21729V6.3501L8.71777 6.44971L8.78418 6.58252L8.87549 6.68213L8.9585 6.74023L9.0498 6.78174L9.15771 6.80664L9.86328 6.81494H12.3203L13.001 6.80664L13.1338 6.77344L13.2417 6.71533L13.3247 6.64062L13.3828 6.56592L13.4409 6.44971L13.4658 6.3252V6.24219L13.4492 6.14258L13.4077 6.04297L13.3579 5.95996L13.2832 5.87695L13.167 5.80225L13.0757 5.76904L12.9595 5.75244H9.20752ZM7.10742 9.65381L7.00781 9.67871L6.8916 9.73682L6.78369 9.82812L6.66748 9.94434V9.96094L6.63428 9.97754V9.99414L6.60107 10.0107V10.0273L6.57617 10.0356L6.53467 10.0854L6.50146 10.1104V10.127L6.46826 10.1436V10.1602L6.43506 10.1768V10.1934L6.40186 10.21V10.2266L6.36865 10.2432V10.2598L6.33545 10.2764V10.293L6.30225 10.3096V10.3262L6.26904 10.3428V10.3594L6.23584 10.376V10.3926L6.20264 10.4092V10.4258L6.16943 10.4424V10.459L6.13623 10.4756V10.4922L6.11133 10.5005L6.06982 10.5503L6.01172 10.6001L5.97021 10.6499L5.92041 10.6914L5.87061 10.7495L5.8125 10.7993L5.771 10.8491L5.73779 10.874V10.8906L5.70459 10.9072V10.9238L5.67139 10.9404L5.60498 11.0151L5.57178 10.9985L5.43066 10.8574L5.33936 10.791L5.25635 10.7495L5.14014 10.7163H4.98242L4.88281 10.7412L4.7666 10.7993L4.67529 10.874L4.60059 10.9736L4.55078 11.0815L4.53418 11.1562V11.3223L4.55908 11.4219L4.60889 11.5215L4.68359 11.6128L5.23975 12.1689L5.32275 12.2271L5.38086 12.2603L5.50537 12.2935H5.67969L5.8125 12.252L5.89551 12.2021L5.98682 12.1274L7.57227 10.542L7.64697 10.4341L7.68018 10.3677L7.70508 10.2764L7.71338 10.1768L7.69678 10.0439L7.65527 9.93604L7.60547 9.85303L7.54736 9.78662L7.46436 9.72852L7.38135 9.68701L7.26514 9.65381H7.10742ZM9.29053 10.708L9.13281 10.7163L9.0332 10.7412L8.93359 10.791L8.82568 10.8906L8.76758 10.9653L8.72607 11.0483L8.69287 11.1812V11.3057L8.71777 11.4053L8.75098 11.4883L8.80908 11.5713L8.84229 11.6128L8.92529 11.6792L9.05811 11.7456L9.14111 11.7622L9.91309 11.7705H12.1709L13.0342 11.7622L13.1421 11.729L13.2334 11.6792L13.3164 11.6128L13.3911 11.5132L13.4409 11.4053L13.4575 11.3472L13.4658 11.2808V11.1978L13.4492 11.1064L13.416 11.0151L13.3579 10.9155L13.3081 10.8574L13.2085 10.7827L13.1006 10.7329L13.0342 10.7163L12.6855 10.708H9.29053Z" fill="#111827"/>
</svg>
