<svg width="17" height="17" viewBox="0 0 17 17" fill="currentColor" xmlns="http://www.w3.org/2000/svg">
<g clip-path="url(#clip0_1397_87)">
<path d="M6.12598 0.879883H10.8657L11.1646 0.888184L11.6709 0.921387L12.0361 0.962891L12.4097 1.021L12.7251 1.0874L12.9824 1.15381L13.1982 1.22021L13.4307 1.30322L13.6299 1.38623L13.8623 1.49414L14.0615 1.60205L14.2358 1.70996L14.4019 1.82617L14.5181 1.91748L14.6094 1.99219L14.6924 2.06689L14.7588 2.125L14.9082 2.27441L14.9663 2.34082L15.0659 2.45703L15.1655 2.58984L15.2485 2.70605L15.3647 2.88867L15.4395 3.02148L15.5391 3.2124L15.6304 3.41162L15.7383 3.69385L15.8296 3.97607L15.896 4.2251L15.9624 4.53223L16.0122 4.82275L16.0537 5.12988L16.0869 5.47852L16.1035 5.72754L16.1118 5.91846L16.1201 6.25049V10.7744L16.1035 11.2891L16.0786 11.6211L16.0537 11.8784L16.0039 12.2437L15.9541 12.5176L15.8711 12.8745L15.7964 13.1318L15.7217 13.356L15.6221 13.605L15.5142 13.8374L15.4062 14.0449L15.2817 14.2441L15.207 14.3521L15.1074 14.4849L14.9995 14.6177L14.9248 14.7007L14.8252 14.8086L14.7588 14.875L14.6924 14.9331L14.6011 15.0161L14.5181 15.0825L14.4102 15.1655L14.2275 15.29L14.0532 15.3979L13.854 15.5059L13.605 15.6221L13.3477 15.7217L13.0488 15.8213L12.7666 15.896L12.4595 15.9624L12.1689 16.0122L11.8618 16.0537L11.5049 16.0869L11.0649 16.1118L10.6416 16.1201H6.3584L5.92676 16.1118L5.47021 16.0869L5.07178 16.0454L4.66504 15.9873L4.30811 15.9126L4.04248 15.8462L3.79346 15.7715L3.56104 15.6885L3.36182 15.6055L3.11279 15.4893L2.93018 15.3896L2.77246 15.29L2.63965 15.1987L2.50684 15.0991L2.41553 15.0244L2.29932 14.9248L2.1665 14.8003L2.05029 14.6758L1.95068 14.5596L1.85107 14.4351L1.73486 14.269L1.63525 14.1113L1.53564 13.937L1.41943 13.7046L1.31152 13.4473L1.22852 13.2148L1.17871 13.0571L1.0957 12.75L1.0376 12.4761L0.987793 12.2021L0.937988 11.8203L0.904785 11.4551L0.888184 11.1812L0.871582 10.6167V6.31689L0.888184 5.79395L0.921387 5.3208L0.962891 4.96387L1.0127 4.64844L1.0708 4.35791L1.15381 4.02588L1.24512 3.73535L1.31982 3.52783L1.41113 3.31201L1.50244 3.12109L1.60205 2.93848L1.72656 2.73926L1.80957 2.62305L1.87598 2.53174L1.95068 2.44043L2.01709 2.35742L2.1084 2.25781L2.31592 2.05029L2.40723 1.97559L2.51514 1.88428L2.63135 1.80127L2.77246 1.70166L2.89697 1.62695L3.02979 1.55225L3.25391 1.43604L3.46143 1.34473L3.70215 1.25342L3.93457 1.17871L4.2085 1.104L4.51562 1.0376L4.79785 0.987793L5.09668 0.946289L5.42871 0.913086L5.83545 0.888184L6.12598 0.879883ZM7.14697 1.94238L6.01807 1.95068L5.54492 1.97559L5.19629 2.00879L4.88916 2.05029L4.59033 2.1084L4.2915 2.18311L3.99268 2.28271L3.78516 2.36572L3.62744 2.44043L3.43652 2.54834L3.34521 2.60645L3.2124 2.69775L3.10449 2.78906L3.03809 2.84717L3.00488 2.87207V2.88867L2.97168 2.90527L2.88867 2.98828V3.00488H2.87207L2.81396 3.07129L2.70605 3.2041L2.60645 3.34521L2.50684 3.51123L2.40723 3.70215L2.32422 3.88477L2.25781 4.05908L2.19141 4.2749L2.125 4.52393L2.05859 4.85596L2.01709 5.14648L1.98389 5.46191L1.95898 5.83545L1.95068 6.10938V10.8989L1.95898 11.1729L1.98389 11.5464L2.02539 11.9282L2.0752 12.2354L2.1333 12.5093L2.19971 12.7583L2.29102 13.0322L2.39062 13.2646L2.49854 13.4805L2.58984 13.6299L2.70605 13.7959L2.79736 13.9038L2.85547 13.9702L2.95508 14.0781L2.98828 14.0947V14.1113L3.05469 14.1694L3.1626 14.2607L3.28711 14.3521L3.41162 14.4351L3.60254 14.543L3.79346 14.6343L3.95947 14.7007L4.14209 14.7671L4.37451 14.8335L4.62354 14.8916L4.88086 14.9414L5.17139 14.9829L5.51172 15.0161L5.73584 15.0327L6.08447 15.0493L6.54932 15.0576H10.0439L10.8989 15.0493L11.3804 15.0244L11.6792 14.9995L12.0112 14.958L12.3018 14.9082L12.5674 14.8501L12.8247 14.7754L13.0405 14.7007L13.2563 14.6094L13.3892 14.543L13.5303 14.4683L13.6963 14.3604L13.854 14.2441L13.9785 14.1362L14.0698 14.0532L14.1279 13.9868L14.2192 13.8872L14.3271 13.7461L14.3853 13.6631L14.4683 13.5303L14.543 13.3975L14.6426 13.1899L14.7173 12.999L14.8003 12.75L14.8667 12.501L14.9331 12.1772L14.9746 11.895L14.9995 11.6875L15.0327 11.2642L15.041 11.0566L15.0493 10.6499V6.30029L15.041 5.94336L15.0244 5.60303L14.9912 5.22949L14.9497 4.92236L14.8916 4.60693L14.8086 4.2749L14.709 3.97607L14.626 3.77686L14.5264 3.56934L14.4268 3.39502L14.3354 3.26221L14.2607 3.1626L14.1694 3.05469L14.0947 2.97168L13.9785 2.85547L13.9121 2.79736L13.7876 2.69775L13.6299 2.58984L13.5054 2.51514L13.3062 2.40723L13.0986 2.31592L12.8662 2.23291L12.6753 2.1748L12.4429 2.1167L12.1025 2.05029L11.7954 2.00879L11.4385 1.97559L10.9902 1.95068L10.2764 1.94238H7.14697Z" fill="#111827"/>
<path d="M8.83203 10.6997H12.3599L12.5591 10.708L12.6587 10.7329L12.7749 10.791L12.8745 10.8823L12.9409 10.9653L12.9824 11.0483L13.0073 11.123L13.0156 11.1729V11.314L12.9824 11.4385L12.9326 11.5298L12.8662 11.6128L12.7915 11.6792L12.7251 11.7207L12.6006 11.7622L12.5674 11.7705L12.3516 11.7788H11.6709L8.66602 11.7705L8.55811 11.7373L8.4668 11.6875L8.37549 11.6128L8.30908 11.5298L8.25098 11.4136L8.22607 11.314V11.1729L8.25098 11.0649L8.30908 10.9487L8.40039 10.8408L8.5083 10.7661L8.57471 10.7329L8.67432 10.708L8.83203 10.6997Z" fill="#111827"/>
<path d="M8.72412 5.74414H12.4761L12.584 5.75244L12.6919 5.78564L12.7915 5.84375L12.8828 5.92676L12.9575 6.03467L12.999 6.13428L13.0156 6.20898V6.3584L12.9907 6.44971L12.9243 6.58252L12.8579 6.66553L12.75 6.74854L12.6504 6.79004L12.5342 6.81494H8.69092L8.56641 6.78174L8.4834 6.74023L8.40039 6.67383L8.34229 6.61572L8.28418 6.52441L8.25098 6.44971L8.22607 6.3501V6.21729L8.25098 6.10938L8.31738 5.97656L8.41699 5.86865L8.5 5.81055L8.59131 5.76904L8.64941 5.75244L8.72412 5.74414Z" fill="#111827"/>
<path d="M6.61572 4.68994L6.73193 4.69824L6.84814 4.73145L6.93945 4.78125L7.03906 4.87256L7.10547 4.96387L7.14697 5.05518L7.17188 5.17139V5.2793L7.14697 5.39551L7.09717 5.50342L7.01416 5.61133L5.40381 7.22168L5.2793 7.30469L5.15479 7.34619L5.11328 7.35449H4.97217L4.83936 7.32129L4.74805 7.27148L4.63184 7.17188L4.12549 6.66553L4.05078 6.56592L4.00928 6.48291L3.98438 6.3999L3.97607 6.3418V6.24219L4.00098 6.11768L4.06738 5.98486L4.10059 5.93506H4.11719L4.13379 5.90186H4.15039V5.88525L4.2334 5.82715L4.31641 5.78564L4.40771 5.76074L4.53223 5.75244L4.64844 5.76904L4.75635 5.81055L4.84766 5.86865L4.97217 5.98486L5.03027 6.04297L5.06348 6.03467L6.25879 4.83936L6.3584 4.76465L6.46631 4.71484L6.53271 4.69824L6.61572 4.68994Z" fill="#111827"/>
<path d="M6.54932 9.65381H6.71533L6.81494 9.67871L6.94775 9.74512L7.05566 9.84473L7.12207 9.95264L7.16357 10.0688L7.17188 10.127V10.2349L7.14697 10.3511L7.10547 10.4507L7.03906 10.542L6.97266 10.6084L6.93115 10.6582L6.86475 10.7163L5.64453 11.9365L5.60303 11.9863L5.54492 12.0361L5.39551 12.1855L5.3125 12.2437L5.22119 12.2852L5.13818 12.3101H4.94727L4.81445 12.2686L4.72314 12.2104L4.62354 12.1191L4.10889 11.6045L4.03418 11.4966L3.99268 11.3887L3.97607 11.2974V11.1978L4.00098 11.0815L4.04248 10.9819L4.10059 10.8989L4.17529 10.8242L4.2666 10.7661L4.34961 10.7329L4.42432 10.7163H4.59033L4.71484 10.7495L4.79785 10.791L4.88086 10.8574L4.96387 10.9404L5.01367 10.9819L5.03027 11.0068L5.05518 11.0151L5.07178 10.9819L5.271 10.7827H5.2876L5.3042 10.7495L5.40381 10.6499H5.42041L5.43701 10.6167H5.45361L5.47021 10.5835H5.48682L5.50342 10.5503H5.52002L5.53662 10.5171H5.55322L5.56982 10.4839H5.58643L5.60303 10.4507H5.61963L5.63623 10.4175L5.68604 10.376L5.73584 10.3179L5.78564 10.2764L5.82715 10.2266L5.88525 10.1768L5.92676 10.127L5.98486 10.0771L6.02637 10.0273L6.08447 9.97754L6.13428 9.91943L6.16748 9.88623H6.18408L6.20068 9.85303H6.21729L6.23389 9.81982L6.3252 9.74512L6.4082 9.69531L6.50781 9.66211L6.54932 9.65381Z" fill="#111827"/>
</g>
<defs>
<clipPath id="clip0_1397_87">
<rect width="17" height="17" fill="white"/>
</clipPath>
</defs>
</svg>
