<svg width="17" height="17" viewBox="0 0 17 17" fill="currentColor" xmlns="http://www.w3.org/2000/svg">
<path d="M1.0791 6.3501L15.9375 6.3584L15.9458 6.3916V12.5508L15.9375 13.4556L15.9209 13.6299L15.8877 13.8291L15.8379 14.0283L15.7715 14.2275L15.6719 14.46L15.5723 14.6426L15.4561 14.8169L15.3813 14.9165L15.29 15.0244L15.2319 15.0908L15.207 15.124H15.1904V15.1406H15.1738L15.1572 15.1738H15.1406V15.1904H15.124V15.207L15.0576 15.2651L14.9497 15.3564L14.8169 15.4561L14.6758 15.5474L14.5015 15.647L14.3271 15.73L14.103 15.813L13.8872 15.8711L13.7212 15.9043L13.5303 15.9292L13.4058 15.9375H3.58594L3.37012 15.9209L3.1709 15.8877L2.92188 15.8213L2.71436 15.7466L2.54834 15.6719L2.37402 15.5806L2.23291 15.4893L2.1167 15.4062L1.98389 15.2983L1.85938 15.1821L1.74316 15.0659L1.68506 14.9995L1.58545 14.875L1.48584 14.7339L1.41113 14.6094L1.31152 14.4268L1.22021 14.2109L1.15381 14.0117L1.104 13.7959L1.0708 13.5801L1.0542 13.3394V6.3667L1.0791 6.3501ZM11.1479 8.39209L11.0151 8.40869L10.9155 8.4502L10.8325 8.5L10.791 8.5332V8.5498L10.7578 8.56641L10.708 8.61621V8.63281H10.6914V8.64941H10.6748V8.66602H10.6582V8.68262H10.6416V8.69922H10.625V8.71582H10.6084V8.73242H10.5918V8.74902H10.5752V8.76562H10.5586V8.78223H10.542V8.79883H10.5254V8.81543H10.5088V8.83203H10.4922L10.4424 8.89014L7.79443 11.5381V11.5547L7.76123 11.5464L6.21729 10.0024L6.11768 9.92773L6.00977 9.87793L5.93506 9.86133L5.83545 9.85303L5.70264 9.86963L5.59473 9.91113L5.51172 9.96924L5.47852 9.99414V10.0107H5.46191V10.0273H5.44531L5.38721 10.1104L5.3457 10.1934L5.3208 10.3013V10.4756L5.354 10.5918L5.39551 10.6665L5.46191 10.7495L7.4209 12.7085L7.50391 12.7666L7.59521 12.8081L7.71143 12.833H7.81104L7.91064 12.8164L8.03516 12.7666L8.10986 12.7085L8.19287 12.6338L11.0068 9.81982L11.0566 9.77832L11.0981 9.72852L11.1562 9.67871L11.1978 9.62891L11.231 9.604V9.5874L11.2642 9.5708V9.5542L11.2974 9.5376V9.521L11.3306 9.50439V9.48779L11.3638 9.47119L11.5298 9.30518L11.6045 9.20557L11.6543 9.10596L11.6792 9.00635V8.84033L11.646 8.71582L11.5962 8.62451L11.5215 8.5332L11.4302 8.4668L11.3223 8.41699L11.2476 8.40039L11.1479 8.39209Z" fill="#111827"/>
<path d="M5.01367 1.0542L5.14648 1.0625L5.25439 1.0957L5.354 1.15381L5.43701 1.22852L5.49512 1.29492L5.56152 1.42773L5.57812 1.51074L5.58643 2.0918L7.30469 2.1001H9.11426L11.4053 2.0918L11.4136 1.55225L11.4385 1.42773L11.5049 1.29492L11.5796 1.21191L11.6377 1.15381L11.7207 1.104L11.812 1.0708L11.9199 1.0542L12.0527 1.0625L12.1606 1.0957L12.2603 1.15381L12.3433 1.22852L12.4014 1.29492L12.4678 1.42773L12.4844 1.51074L12.4927 2.0918H13.0239L13.4473 2.1001L13.688 2.125L13.9038 2.1665L14.1362 2.23291L14.3687 2.32422L14.5679 2.42383L14.7422 2.53174L14.8833 2.63135L15.0161 2.73926L15.1406 2.85547L15.2734 2.98828L15.3481 3.07959L15.4561 3.2207L15.564 3.38672L15.6636 3.56934L15.7383 3.72705L15.8047 3.90137L15.8711 4.13379L15.9126 4.34961L15.9375 4.59033L15.9458 5.2793L15.9375 5.2959L15.8877 5.3042H1.0874L1.0625 5.2959L1.0542 5.2793V4.66504L1.0708 4.44922L1.1123 4.2002L1.16211 4.00098L1.23682 3.78516L1.31982 3.59424L1.39453 3.45312L1.48584 3.30371L1.58545 3.1626L1.67676 3.04639L1.78467 2.93018L1.79297 2.91357H1.80957L1.82617 2.88037L1.85938 2.84717H1.87598V2.83057L1.94238 2.77246L2.05859 2.67285L2.21631 2.55664L2.37402 2.45703L2.57324 2.34912L2.77246 2.26611L2.97168 2.19971L3.1709 2.1499L3.36182 2.1167L3.53613 2.1001L4.50732 2.0918V1.55225L4.53223 1.42773L4.59863 1.29492L4.67334 1.21191L4.73145 1.15381L4.81445 1.104L4.90576 1.0708L5.01367 1.0542ZM4.52393 2.1084L4.51562 2.88037V3.63574L4.52393 3.76025L4.54883 3.85986L4.59863 3.95947L4.67334 4.05078L4.75635 4.11719L4.87256 4.17529L4.98047 4.2002H5.11328L5.22119 4.17529L5.3208 4.12549L5.41211 4.05908V4.04248H5.42871L5.50342 3.94287L5.54492 3.85156L5.56982 3.75195V2.1084H4.52393ZM11.4302 2.1084L11.4219 2.79736V3.64404L11.4302 3.76025L11.4551 3.85986L11.5049 3.95947L11.5796 4.05078L11.6626 4.11719L11.7788 4.17529L11.8867 4.2002H12.0195L12.1274 4.17529L12.2271 4.12549L12.3184 4.05908V4.04248H12.335L12.4097 3.94287L12.4512 3.85156L12.4761 3.75195V2.1084H11.4302Z" fill="#111827"/>
</svg>
