<svg width="17" height="17" viewBox="0 0 17 17" fill="currentColor" xmlns="http://www.w3.org/2000/svg">
<path d="M5.01367 1.0542L5.14648 1.0625L5.25439 1.0957L5.3457 1.14551L5.42871 1.22021L5.49512 1.29492L5.56152 1.42773L5.57812 1.51074L5.58643 2.1001H11.4136V1.56055L11.4385 1.42773L11.4717 1.35303L11.5215 1.27002L11.6045 1.17871L11.6875 1.12061L11.7788 1.0791L11.9199 1.0542L12.0527 1.0625L12.1606 1.0957L12.252 1.14551L12.335 1.22021L12.4014 1.29492L12.4678 1.42773L12.4844 1.51074L12.4927 2.0752L12.501 2.0918H13.0737L13.4556 2.1001L13.688 2.125L13.9038 2.1665L14.1362 2.23291L14.3687 2.32422L14.5679 2.42383L14.7422 2.53174L14.8833 2.63135L14.9746 2.70605L15.0908 2.80566L15.2568 2.97168L15.3315 3.06299L15.4312 3.1875L15.5474 3.36182L15.647 3.53613L15.7383 3.72705L15.8047 3.90137L15.8711 4.13379L15.9126 4.34961L15.9375 4.57373L15.9458 4.79785V13.0488L15.9375 13.4639L15.9209 13.6382L15.8877 13.8291L15.8379 14.0283L15.7715 14.2275L15.6719 14.46L15.6221 14.5513L15.5557 14.6675L15.4561 14.8169L15.3481 14.958L15.2485 15.0742L15.1904 15.1406H15.1738V15.1572H15.1572V15.1738L15.0908 15.2319L14.9912 15.3232L14.8501 15.4312L14.7422 15.5059L14.5762 15.6055L14.3853 15.7051L14.1528 15.7964L13.9287 15.8628L13.6714 15.9126L13.5386 15.9292L13.4224 15.9375H3.56934L3.31201 15.9126L3.10449 15.8711L2.89697 15.813L2.71436 15.7466L2.51514 15.6553L2.33252 15.5557L2.23291 15.4893L2.1416 15.4229L2.03369 15.3398L1.94238 15.2568L1.87598 15.1987L1.74316 15.0659L1.68506 14.9995L1.58545 14.875L1.46924 14.709L1.36963 14.5347L1.30322 14.4019L1.22021 14.2109L1.15381 14.0117L1.104 13.7959L1.0708 13.5801L1.0542 13.3477V4.66504L1.0708 4.44922L1.104 4.2417L1.15381 4.03418L1.23682 3.78516L1.31152 3.61914L1.37793 3.48633L1.44434 3.37012L1.54395 3.2207L1.65186 3.07959L1.75146 2.96338L1.81787 2.89697L1.82617 2.88037H1.84277V2.86377L1.90918 2.80566L2.00879 2.71436L2.1499 2.60645L2.28271 2.51514L2.40723 2.44043L2.54004 2.36572L2.74756 2.27441L2.97168 2.19971L3.1709 2.1499L3.36182 2.1167L3.52783 2.1001H4.50732V1.56055L4.53223 1.42773L4.56543 1.35303L4.61523 1.27002L4.69824 1.17871L4.78125 1.12061L4.87256 1.0791L5.01367 1.0542ZM6.47461 3.1626L5.58643 3.1709L5.57812 3.34521L5.56982 3.75195L5.54492 3.85156L5.47852 3.98438L5.39551 4.07568L5.3125 4.13379L5.21289 4.17529L5.12158 4.2002H4.96387L4.87256 4.17529L4.73975 4.10889L4.64014 4.01758L4.56543 3.90137L4.53223 3.81006L4.51562 3.66064L4.50732 3.1709H3.61084L3.45312 3.1875L3.24561 3.2373L3.08789 3.29541L2.92188 3.37842L2.79736 3.46143L2.71436 3.52783L2.63135 3.60254L2.58984 3.63574V3.65234L2.56494 3.66064L2.50684 3.72705L2.42383 3.83496L2.34912 3.95117L2.25781 4.12549L2.19141 4.30811L2.1499 4.49072L2.1333 4.64014L2.125 5.2793V5.2876L2.60645 5.2959H14.8501L14.8667 5.2876V4.67334L14.8418 4.45752L14.8086 4.31641L14.7505 4.15039L14.6675 3.97607L14.5762 3.83496L14.5015 3.73535L14.3853 3.61084L14.2939 3.52783L14.1445 3.41992L13.9951 3.33691L13.8706 3.27881L13.6963 3.2207L13.4888 3.1792L13.3892 3.1709H12.4927L12.4844 3.34521L12.4761 3.75195L12.4512 3.85156L12.3848 3.98438L12.3018 4.07568L12.2188 4.13379L12.1191 4.17529L12.0278 4.2002H11.8701L11.7788 4.17529L11.646 4.10889L11.5464 4.01758L11.4717 3.90137L11.4385 3.81006L11.4219 3.65234L11.4136 3.1709L10.3843 3.1626H6.47461ZM2.30762 6.3584L2.1333 6.3667L2.125 12.5176V13.1816L2.1333 13.4141L2.1665 13.6382L2.20801 13.7793L2.25781 13.9121L2.32422 14.0532L2.39893 14.1694L2.46533 14.2607L2.56494 14.377L2.63965 14.4517L2.73096 14.5264L2.85547 14.6177L2.99658 14.7007L3.1709 14.7754L3.34521 14.8252L3.46973 14.8501L3.62744 14.8667H13.3892L13.5884 14.8418L13.7461 14.8003L13.9287 14.7339L14.0864 14.6509L14.1777 14.5928L14.2773 14.5181L14.3604 14.4434L14.3936 14.4185V14.4019L14.4268 14.3853L14.4849 14.3188L14.5596 14.2275L14.6426 14.103L14.7422 13.9121L14.8003 13.7544L14.8418 13.5801L14.8667 13.3809V6.3667L14.6924 6.3584H2.30762Z" fill="#111827"/>
<path d="M11.0566 8.39209H11.2476L11.3389 8.41699L11.4551 8.4751L11.5381 8.5498L11.6045 8.62451L11.6626 8.74072L11.6875 8.83203V9.01465L11.6626 9.10596L11.6128 9.20557L11.563 9.27197L11.4883 9.35498L8.15137 12.6919L8.06836 12.7583L7.96875 12.8081L7.85254 12.8413H7.67822L7.56201 12.8081L7.4624 12.75L7.37939 12.6836L7.32959 12.6255L7.27979 12.584L7.22998 12.5259L7.18018 12.4844L7.13037 12.4263L7.08057 12.3848L7.03076 12.3267L6.98096 12.2852L6.93115 12.2271L6.88135 12.1855L6.83154 12.1274L6.78174 12.0859L6.73193 12.0278L6.68213 11.9863L6.63232 11.9282L6.58252 11.8867L6.53271 11.8286L6.48291 11.7871L6.43311 11.729L6.3833 11.6875L6.3335 11.6294L6.28369 11.5879L6.23389 11.5298L6.18408 11.4883L6.13428 11.4302L6.08447 11.3887L6.03467 11.3306L5.98486 11.2891L5.93506 11.231L5.88525 11.1895L5.82715 11.123L5.42041 10.7163L5.3623 10.625L5.3208 10.5254L5.3042 10.4175L5.3125 10.2847L5.354 10.1519L5.41211 10.0605L5.48682 9.97754L5.57812 9.91113L5.66943 9.86963L5.73584 9.85303L5.87695 9.84473L5.98486 9.86133L6.07617 9.89453L6.16748 9.95264L6.27539 10.0522L7.75293 11.5298L7.77783 11.5381L10.8076 8.5083L10.9238 8.43359L11.0566 8.39209Z" fill="#111827"/>
</svg>
