<svg width="15" height="15" viewBox="0 0 15 15" fill="none" xmlns="http://www.w3.org/2000/svg">
<path d="M3.75732 0.461426H4.67285L4.6875 0.46875L4.69482 0.490723L4.70947 0.725098L4.73877 0.952148L4.77539 1.12793L4.82666 1.31104L4.87793 1.45752L4.93652 1.604L5.03174 1.80176L5.11963 1.94824L5.18555 2.05078L5.28809 2.18994L5.354 2.27051L5.41992 2.34375L5.50049 2.43164L5.5957 2.52686L5.6543 2.57812L5.74951 2.65869L5.88867 2.76123L5.99854 2.83447L6.15967 2.92969L6.27686 2.98828L6.41602 3.0542L6.67969 3.14941L6.91406 3.20801L7.08252 3.2373L7.27295 3.25928L7.39014 3.2666H7.60986L7.81494 3.25195L8.04932 3.21533L8.23242 3.17139L8.42285 3.11279L8.57666 3.0542L8.79639 2.95166L8.91357 2.88574L9.06738 2.79053L9.20654 2.68799L9.30908 2.60742L9.41162 2.51221L9.47021 2.46094L9.54346 2.3877L9.59473 2.3291L9.66064 2.25586L9.73389 2.16064L9.8291 2.02881L9.90967 1.89697L9.98291 1.77246L10.0781 1.56738L10.1587 1.35498L10.21 1.1792L10.2466 1.02539L10.2832 0.783691L10.3052 0.490723L10.3198 0.461426H11.2427L11.3672 0.476074L11.4771 0.52002L11.6455 0.615234L11.8286 0.717773L11.9531 0.791016L12.1216 0.88623L12.312 0.996094L12.4805 1.09131L12.6562 1.19385L12.854 1.30371L12.9785 1.37695L13.147 1.47217L13.3374 1.58203L13.5059 1.67725L13.6816 1.77979L13.8794 1.88965L14.0552 1.99219L14.2383 2.09473L14.5679 2.28516L14.6997 2.3584L14.7876 2.41699L14.8682 2.48291L14.9268 2.55615L14.978 2.65869L14.9927 2.69531L15 2.72461V2.93701L14.9854 2.94434L14.8828 3.31787L14.7729 3.69873L14.0698 6.15967L14.0259 6.28418L13.9819 6.36475L13.916 6.43799L13.8428 6.49658L13.7622 6.5332L13.6523 6.5625H13.5352L13.3594 6.52588L12.8687 6.40137L12.334 6.26953L12.1948 6.23291V13.2422L12.1875 14.1138L12.1655 14.2163L12.1069 14.3335L12.0264 14.4214L11.9531 14.4727L11.8652 14.5093L11.8066 14.5239L11.7407 14.5312H3.2373L3.14941 14.5166L3.06152 14.48L2.98096 14.4287L2.91504 14.3628L2.86377 14.2822L2.83447 14.2236L2.8125 14.1284L2.80518 14.0332V6.23291L1.86768 6.46729L1.53809 6.54785L1.45752 6.5625H1.34033L1.24512 6.54053L1.13525 6.48193L1.06201 6.41602L1.01807 6.36475L0.959473 6.25488L0.900879 6.06445L0.754395 5.54443L0.256348 3.80127L0.131836 3.36914L0.0146484 2.95166L0 2.91504V2.72461L0.0439453 2.60742L0.102539 2.51221L0.161133 2.45361L0.263672 2.38037L0.454102 2.27051L3.12012 0.74707L3.28857 0.651855L3.479 0.541992L3.58887 0.490723L3.63281 0.476074L3.75732 0.461426Z" fill="black"/>
</svg>
