<svg width="16" height="15" viewBox="0 0 16 15" fill="none" xmlns="http://www.w3.org/2000/svg">
<g clip-path="url(#clip0_2495_1166)">
<path d="M4.25732 0.461182H11.7354L11.8672 0.47583L11.9771 0.519775L12.1455 0.61499L12.3286 0.717529L12.4531 0.790771L12.6216 0.885986L12.812 0.99585L12.9951 1.09839L13.1709 1.20093L13.354 1.30347L13.5298 1.40601L13.7129 1.50854L13.8887 1.61108L14.0718 1.71362L14.2476 1.81616L14.4307 1.9187L14.6064 2.02124L14.7896 2.12378L14.9141 2.19702L15.0825 2.29224L15.2363 2.38013L15.3242 2.44604L15.3975 2.51196L15.4707 2.63647L15.4927 2.69507L15.5 2.72437V2.93677L15.4854 2.94409L15.4487 3.08325L14.5552 6.21069L14.5039 6.32788L14.4526 6.40112L14.394 6.45972L14.3135 6.51099L14.1963 6.55493L14.1523 6.56226H14.0278L13.8594 6.52563L13.3687 6.40112L12.834 6.26929L12.6948 6.23267V13.6008L12.6875 14.1208L12.6582 14.238L12.6069 14.3333L12.5264 14.4211L12.4531 14.4724L12.3652 14.509L12.314 14.5237L12.248 14.531H3.72266L3.60547 14.5017L3.53223 14.4651L3.45898 14.4065L3.39307 14.3333L3.34912 14.26L3.31982 14.1721L3.30518 14.033V6.23267L2.36768 6.46704L2.00879 6.55493L1.95752 6.56226H1.84033L1.74512 6.54028L1.63525 6.48169L1.54736 6.40112L1.49609 6.32788L1.45215 6.23267L1.38623 6.01294L1.26172 5.57349L0.558594 3.11255L0.507324 2.92212L0.5 2.91479V2.71704L0.521973 2.65845L0.573242 2.55591L0.624512 2.48267L0.749023 2.38745L3.8252 0.629639L3.99365 0.534424L4.11084 0.483154L4.18408 0.468506L4.25732 0.461182ZM4.41113 1.40601L4.35986 1.41333L4.19141 1.50854L4.00098 1.61841L1.74512 2.90747L1.55469 3.01733L1.52539 3.03931L1.55469 3.15649L2.02344 4.79712L2.19189 5.38306L2.23584 5.52222L2.30176 5.50757L3.65674 5.17065L3.70801 5.16333H3.86182L3.96436 5.19263L4.05225 5.2439L4.12549 5.30981L4.17676 5.37573L4.2207 5.46362L4.24268 5.55884L4.25 5.76392V13.5862L4.29395 13.5935H11.7354L11.7427 13.5862L11.75 5.61743L11.7646 5.50757L11.8013 5.41235L11.8525 5.33179L11.8745 5.30981V5.29517L11.8965 5.28784V5.27319L11.9258 5.25854L11.9917 5.2146L12.0723 5.17798L12.1382 5.16333L12.2261 5.15601L12.3433 5.17065L12.8193 5.28784L13.7568 5.52222L13.7715 5.50024L13.8374 5.28052L13.9473 4.89233L14.3281 3.55933L14.438 3.17114L14.4673 3.0686V3.03198L14.2915 2.92944L11.8306 1.52319L11.6987 1.44995L11.6182 1.40601H10.3071L10.2925 1.42065L10.2412 1.61841L10.1826 1.78687L10.1167 1.94067L10.0288 2.10913L9.92627 2.27026L9.83838 2.38745L9.77246 2.46802L9.6626 2.58521L9.58936 2.65845L9.53076 2.70972L9.41357 2.80493L9.27441 2.90015L9.12793 2.98804L9.01074 3.04663L8.90088 3.0979L8.74707 3.15649L8.56396 3.20776L8.38086 3.24438L8.23438 3.26636L8.13184 3.27368H7.86816L7.69238 3.25903L7.4873 3.22241L7.29688 3.17114L7.07715 3.09058L6.93799 3.02466L6.80615 2.95142L6.66699 2.86353L6.53516 2.76099L6.45459 2.69507L6.396 2.63647L6.3374 2.58521L6.23486 2.47534L6.22754 2.46069H6.21289L6.19824 2.4314L6.0957 2.29956L6.00781 2.16772L5.91992 2.01392L5.83936 1.84546L5.77344 1.66968L5.71484 1.45728L5.7002 1.41333L5.67822 1.40601H4.41113ZM6.69629 1.40601L6.68164 1.42065L6.72559 1.52319L6.81348 1.68433L6.88672 1.78687L7.01855 1.94067L7.09912 2.00659L7.18701 2.07983L7.28223 2.13843L7.46533 2.23364L7.64844 2.29224L7.74365 2.31421L7.94873 2.33618H8.05859L8.25635 2.31421L8.39551 2.27759L8.56396 2.21899L8.75439 2.11646L8.83496 2.05786L8.95947 1.95532L9.00342 1.9187L9.06934 1.83813L9.16455 1.72095L9.21582 1.63306L9.27441 1.51587L9.31104 1.4353L9.30371 1.40601H6.69629Z" fill="#010101"/>
</g>
<defs>
<clipPath id="clip0_2495_1166">
<rect width="15" height="15" fill="white" transform="translate(0.5)"/>
</clipPath>
</defs>
</svg>
